<?xml version="1.0" standalone="no"?>
<!DOCTYPE svg PUBLIC "-//W3C//DTD SVG 1.1//EN" "http://www.w3.org/Graphics/SVG/1.1/DTD/svg11.dtd" >
<svg>
<metadata>
Created by FontForge 20090914 at Thu Nov  8 14:29:22 2018
 By www-data
Copyright (c) 2000 The Hoefler Type Foundry, Inc., dba Hoefler &#38; Frere-Jones. All Rights Reserved.
</metadata>
<defs>
<font id="GothamPro-Bold" horiz-adv-x="500" >
  <font-face 
    font-family="Gotham Pro"
    font-weight="700"
    font-stretch="normal"
    units-per-em="1000"
    panose-1="2 0 8 3 3 0 0 2 0 4"
    ascent="800"
    descent="-200"
    x-height="535.999"
    cap-height="700"
    bbox="-71 -173 1195 932"
    underline-thickness="20"
    underline-position="-113"
    unicode-range="U+0020-U+FB04"
  />
<missing-glyph 
d="M0 0v700h500v-700h-500zM81 49h339l-170 255zM49 96l171 254l-171 254v-508zM450 96v508l-171 -254zM250 395l170 255h-339z" />
    <glyph glyph-name="fi" unicode="fi" horiz-adv-x="684" 
d="M453 595v135h160v-135h-160zM94 0v406h-63v125h63v34c0 58 14.333 101.333 43 130c28 28 69 42 123 42c40.667 0 76.667 -5 108 -15v-126c-24 8.66699 -47 13 -69 13c-36.667 0 -55 -19.333 -55 -58v-21h123v-124h-121v-406h-152zM457 0v536h152v-536h-152z" />
    <glyph glyph-name="fl" unicode="fl" horiz-adv-x="684" 
d="M94 0v406h-63v125h63v34c0 58 14.333 101.333 43 130c28 28 69 42 123 42c40.667 0 76.667 -5 108 -15v-126c-24 8.66699 -47 13 -69 13c-36.667 0 -55 -19.333 -55 -58v-21h123v-124h-121v-406h-152zM457 0v730h152v-730h-152z" />
    <glyph glyph-name="ffi" unicode="ffi" horiz-adv-x="1066" 
d="M835 595v135h160v-135h-160zM476 0v406h-63v125h63v34c0 58 14.333 101.333 43 130c28 28 69 42 123 42c40.667 0 76.667 -5 108 -15v-126c-24 8.66699 -47 13 -69 13c-36.667 0 -55 -19.333 -55 -58v-21h123v-124h-121v-406h-152zM94 0v406h-63v125h63v34
c0 58 14.333 101.333 43 130c28 28 69 42 123 42c40.667 0 76.667 -5 108 -15v-126c-24 8.66699 -47 13 -69 13c-36.667 0 -55 -19.333 -55 -58v-21h123v-124h-121v-406h-152zM839 0v536h152v-536h-152z" />
    <glyph glyph-name="ffl" unicode="ffl" horiz-adv-x="1066" 
d="M476 0v406h-63v125h63v34c0 58 14.333 101.333 43 130c28 28 69 42 123 42c40.667 0 76.667 -5 108 -15v-126c-24 8.66699 -47 13 -69 13c-36.667 0 -55 -19.333 -55 -58v-21h123v-124h-121v-406h-152zM94 0v406h-63v125h63v34c0 58 14.333 101.333 43 130
c28 28 69 42 123 42c40.667 0 76.667 -5 108 -15v-126c-24 8.66699 -47 13 -69 13c-36.667 0 -55 -19.333 -55 -58v-21h123v-124h-121v-406h-152zM839 0v730h152v-730h-152z" />
    <glyph glyph-name=".notdef" 
d="M0 0v700h500v-700h-500zM81 49h339l-170 255zM49 96l171 254l-171 254v-508zM450 96v508l-171 -254zM250 395l170 255h-339z" />
    <glyph glyph-name="space" unicode=" " horiz-adv-x="300" 
 />
    <glyph glyph-name="exclam" unicode="!" horiz-adv-x="324" 
d="M120 238l-47 442v20h178v-20l-47 -442h-84zM81 0v160h162v-160h-162z" />
    <glyph glyph-name="quotedbl" unicode="&#x22;" horiz-adv-x="520" 
d="M293 381l18 319h168v-5l-109 -314h-77zM57 381l18 319h168v-5l-109 -314h-77z" />
    <glyph glyph-name="numbersign" unicode="#" horiz-adv-x="700" 
d="M85 0l26 150h-76v128h98l25 148h-88v128h110l25 146h132l-25 -146h145l25 146h132l-25 -146h76v-128h-98l-25 -148h88v-128h-110l-26 -150h-132l26 150h-145l-26 -150h-132zM265 278h145l25 148h-145z" />
    <glyph glyph-name="dollar" unicode="$" horiz-adv-x="646" 
d="M280 -98l0.00195312 101c-88.667 11.333 -167.334 43 -236.001 95l78 114c57.333 -43.333 111.666 -70.333 162.999 -81v159c-74.667 20 -129.167 46.167 -163.5 78.5s-51.5 77.5 -51.5 135.5c0 54.667 19 99.334 57 134.001s89 55.334 153 62.001v58h104v-60
c67.333 -9.33301 129.333 -34 186 -74l-67 -117c-42.667 28.667 -84 48.334 -124 59.001v-151c76.667 -20.667 132 -47.834 166 -81.501s51 -78.834 51 -135.501c0 -54.667 -19.167 -99.334 -57.5 -134.001s-89.833 -55.667 -154.5 -63v-99h-104zM285.002 440
l-0.000976562 135c-46 -6 -69 -27.333 -69 -64c0 -16 4.83301 -29.5 14.5 -40.5s27.834 -21.167 54.501 -30.5zM379.001 126c47.333 7.33301 71 29.333 71 66c0 17.333 -5.16699 31.5 -15.5 42.5s-28.833 21.5 -55.5 31.5v-140z" />
    <glyph glyph-name="percent" unicode="%" horiz-adv-x="860" 
d="M214 350c-50 0 -90.667 17.167 -122 51.5s-47 76.833 -47 127.5s16 93.167 48 127.5s73 51.5 123 51.5s90.667 -17.167 122 -51.5s47 -76.833 47 -127.5c0 -50 -16 -92.333 -48 -127s-73 -52 -123 -52zM115 0l511 700h119l-511 -700h-119zM644 -8
c-50 0 -90.667 17.167 -122 51.5s-47 76.833 -47 127.5s16 93.167 48 127.5s73 51.5 123 51.5s90.667 -17.167 122 -51.5s47 -76.833 47 -127.5c0 -50 -16 -92.333 -48 -127s-73 -52 -123 -52zM216 441c20 0 35.667 8.5 47 25.5s17 37.833 17 62.5
c0 24 -6.16699 44.667 -18.5 62s-28.166 26 -47.499 26c-20 0 -35.667 -8.33301 -47 -25s-17 -37.667 -17 -63c0 -24 6.16699 -44.667 18.5 -62s28.166 -26 47.499 -26zM646 83c20 0 35.667 8.5 47 25.5s17 37.833 17 62.5c0 24 -6.16699 44.667 -18.5 62
s-28.166 26 -47.499 26c-20 0 -35.667 -8.33301 -47 -25s-17 -37.667 -17 -63c0 -24 6.16699 -44.667 18.5 -62s28.166 -26 47.499 -26z" />
    <glyph glyph-name="ampersand" unicode="&#x26;" horiz-adv-x="696" 
d="M555 -14l-81 82c-63.333 -52 -131.666 -78 -204.999 -78c-68.667 0 -125 18.5 -169 55.5s-66 86.5 -66 148.5c0 86.667 45.333 150.667 136 192c-32.667 46 -49 93.333 -49 142c0 50.667 19.167 94 57.5 130s89.833 54 154.5 54c58.667 0 106.167 -17 142.5 -51
s54.5 -76.333 54.5 -127c0 -84 -49 -145 -147 -183l93 -93c22 34.667 44.667 74.667 68 120l113 -62c-34.667 -62.667 -65.334 -112 -92.001 -148l103 -103zM303 432c32 12 55.5 25.333 70.5 40s22.5 33 22.5 55c0 20 -6 35.833 -18 47.5s-28 17.5 -48 17.5
c-20.667 0 -37.167 -6.66699 -49.5 -20s-18.5 -31 -18.5 -53c0 -26.667 13.667 -55.667 41 -87zM287 116c33.333 0 67 13.333 101 40l-134 136c-43.333 -22.667 -65 -54 -65 -94c0 -24.667 9.16699 -44.5 27.5 -59.5s41.833 -22.5 70.5 -22.5z" />
    <glyph glyph-name="quotesingle" unicode="'" horiz-adv-x="286" 
d="M57 381l18 319h170v-5l-109 -314h-79z" />
    <glyph glyph-name="parenleft" unicode="(" horiz-adv-x="445" 
d="M336 -141c-92.667 50.667 -162 110.83 -208 180.497s-69 152.167 -69 247.5s23 177.833 69 247.5s115.333 129.834 208 180.501l67 -101c-68 -47.333 -117.167 -96.166 -147.5 -146.499s-45.5 -110.5 -45.5 -180.5s15.167 -130.167 45.5 -180.5
s79.5 -99.166 147.5 -146.499z" />
    <glyph glyph-name="parenright" unicode=")" horiz-adv-x="445" 
d="M109 -141l-67 101.004c68 47.333 117.167 96.166 147.5 146.499s45.5 110.5 45.5 180.5s-15.167 130.167 -45.5 180.5s-79.5 99.166 -147.5 146.499l67 101c92.667 -50.667 162 -110.834 208 -180.501s69 -152.167 69 -247.5s-23 -177.833 -69 -247.5
s-115.333 -129.834 -208 -180.501z" />
    <glyph glyph-name="asterisk" unicode="*" horiz-adv-x="430" 
d="M174 372l16 120l-97 -74l-42 72l112 47l-112 47l42 72l97 -74l-16 120h82l-16 -120l97 74l42 -72l-112 -47l112 -47l-42 -72l-97 74l16 -120h-82z" />
    <glyph glyph-name="plus" unicode="+" horiz-adv-x="640" 
d="M249 103v180h-181v138h181v180h142v-180h181v-138h-181v-180h-142z" />
    <glyph glyph-name="comma" unicode="," horiz-adv-x="286" 
d="M39 -162l-13 63.001c65.333 7.33301 98 36.666 98 87.999v11h-62v160h162v-135c0 -64 -15.5 -110.833 -46.5 -140.5s-77.167 -45.167 -138.5 -46.5z" />
    <glyph glyph-name="hyphen" unicode="-" horiz-adv-x="408" 
d="M50 237v146h308v-146h-308z" />
    <glyph glyph-name="period" unicode="." horiz-adv-x="286" 
d="M62 0v160h162v-160h-162z" />
    <glyph glyph-name="slash" unicode="/" horiz-adv-x="530" 
d="M-28 -128l443 926h129l-443 -926h-129z" />
    <glyph glyph-name="zero" unicode="0" horiz-adv-x="730" 
d="M364 -12c-92 0 -166.667 34.333 -224 103s-86 155 -86 259c0 103.333 29 189.5 87 258.5s133 103.5 225 103.5c91.333 0 165.833 -34.333 223.5 -103s86.5 -155 86.5 -259c0 -103.333 -29 -189.5 -87 -258.5s-133 -103.5 -225 -103.5zM366 127
c46 0 82.833 20.833 110.5 62.5s41.5 95.167 41.5 160.5c0 64 -14.333 117.167 -43 159.5s-65.667 63.5 -111 63.5s-82 -20.833 -110 -62.5s-42 -95.167 -42 -160.5c0 -64.667 14.167 -118 42.5 -160s65.5 -63 111.5 -63z" />
    <glyph glyph-name="one" unicode="1" horiz-adv-x="422" 
d="M178 0v549l-122 -30l-32 126l201 60h105v-705h-152z" />
    <glyph glyph-name="two" unicode="2" horiz-adv-x="623" 
d="M49 0v122l233 191c46 38 77.667 68.5 95 91.5s26 48.5 26 76.5c0 28.667 -8.66699 51 -26 67s-40 24 -68 24c-26 0 -49.5 -7.16699 -70.5 -21.5s-45.167 -38.5 -72.5 -72.5l-108 87c36.667 50 74.5 86.667 113.5 110s88.167 35 147.5 35c72.667 0 131 -19.833 175 -59.5
s66 -92.5 66 -158.5c0 -38 -7.33301 -72.167 -22 -102.5s-33.667 -57 -57 -80s-58.333 -52.5 -105 -88.5l-114 -88h305v-133h-518z" />
    <glyph glyph-name="three" unicode="3" horiz-adv-x="621" 
d="M311 -12c-114 0 -204.998 40.332 -272.998 120.999l106 101c50 -56 106.333 -84 169 -84c29.333 0 53.166 7.83301 71.499 23.5s27.5 36.834 27.5 63.501c0 28.667 -12 50.667 -36 66s-57.667 23 -101 23h-64l-24 98l167 168h-275v132h473v-116l-177 -169
c125.333 -21.333 188 -87.333 188 -198c0 -67.333 -22.833 -122.333 -68.5 -165s-106.834 -64 -183.501 -64z" />
    <glyph glyph-name="four" unicode="4" horiz-adv-x="689" 
d="M398 0v151h-342l-25 109l384 445h130v-429h94v-125h-94v-151h-147zM212 276h186v218z" />
    <glyph glyph-name="five" unicode="5" horiz-adv-x="630" 
d="M305 -12c-101.333 0 -188.668 35.001 -262.001 105.001l93 111c56 -50.667 111.667 -76 167 -76c36.667 0 65.334 8.66699 86.001 26s31 41.666 31 72.999c0 29.333 -11.333 52.5 -34 69.5s-52.667 25.5 -90 25.5s-76.333 -8.66699 -117 -26l-89 59l20 345h430v-135h-298
l-8 -121c32 8 62.667 12 92 12c72.667 0 131.667 -18.667 177 -56s68 -94 68 -170c0 -74 -24.167 -132.833 -72.5 -176.5s-112.833 -65.5 -193.5 -65.5z" />
    <glyph glyph-name="six" unicode="6" horiz-adv-x="662" 
d="M339 -12c-84.667 0 -151.998 25 -201.998 75c-55.333 55.333 -83 144.333 -83 267c0 113.333 26 205.333 78 276s128.333 106 229 106c81.333 0 154.333 -25.667 219 -77l-81 -119c-25.333 19.333 -48.5 33.5 -69.5 42.5s-45.5 13.5 -73.5 13.5
c-41.333 0 -73.833 -14.833 -97.5 -44.5s-38.167 -68.834 -43.5 -117.501c45.333 30 93.666 45 144.999 45c72 0 131 -19.667 177 -59s69 -94.666 69 -165.999c0 -70.667 -25.333 -128.667 -76 -174s-114.334 -68 -191.001 -68zM333.002 120
c37.333 0 66.666 9.66797 87.999 29.001s32 44.666 32 75.999c0 30 -11 54.5 -33 73.5s-51.667 28.5 -89 28.5s-66.666 -9.33301 -87.999 -28s-32 -43.667 -32 -75c0 -30 11 -54.833 33 -74.5s51.667 -29.5 89 -29.5z" />
    <glyph glyph-name="seven" unicode="7" horiz-adv-x="619" 
d="M84 0l313 567h-329v133h504v-116l-314 -584h-174z" />
    <glyph glyph-name="eight" unicode="8" horiz-adv-x="630" 
d="M315 -10c-78.667 0 -143.334 18.667 -194.001 56s-76 86.666 -76 147.999c0 78 37.667 134.333 113 169c-59.333 36 -89 87.667 -89 155c0 54.667 22.833 100.334 68.5 137.001s104.834 55 177.501 55c73.333 0 132.666 -18.333 177.999 -55s68 -83 68 -139
c0 -66 -29.667 -117 -89 -153c38 -20 66.333 -42.667 85 -68s28 -58.333 28 -99c0 -63.333 -25.167 -113.5 -75.5 -150.5s-115.166 -55.5 -194.499 -55.5zM315 414c30 0 54.167 8 72.5 24s27.5 37 27.5 63c0 22.667 -9.16699 42 -27.5 58s-42.5 24 -72.5 24
c-30.667 0 -55 -8 -73 -24s-27 -35.667 -27 -59c0 -24.667 9.16699 -45.167 27.5 -61.5s42.5 -24.5 72.5 -24.5zM315 117c37.333 0 66.833 8.33398 88.5 25.001s32.5 38 32.5 64c0 26.667 -11.167 47.667 -33.5 63s-51.5 23 -87.5 23s-65.167 -7.83301 -87.5 -23.5
s-33.5 -37.167 -33.5 -64.5c0 -24.667 11 -45.334 33 -62.001s51.333 -25 88 -25z" />
    <glyph glyph-name="nine" unicode="9" horiz-adv-x="662" 
d="M302 -12c-86.667 0 -163.336 27.667 -230.003 83l81 117c50 -40 101 -60 153 -60c41.333 0 74 14.333 98 43s38.667 67.334 44 116.001c-37.333 -32 -84.666 -48 -141.999 -48c-76.667 0 -137.5 20.167 -182.5 60.5s-67.5 96.166 -67.5 167.499
c0 70.667 24.833 129.167 74.5 175.5s113.834 69.5 192.501 69.5c46 0 84.5 -6 115.5 -18s59.833 -31.333 86.5 -58c55.333 -55.333 83 -144 83 -266c0 -116 -26.667 -208.667 -80 -278s-128.666 -104 -225.999 -104zM330.998 367c37.333 0 66.667 9.83301 88 29.5
s32 45.167 32 76.5s-11 57 -33 77s-52 30 -90 30c-37.333 0 -66.5 -9.83301 -87.5 -29.5s-31.5 -45.834 -31.5 -78.501c0 -31.333 11 -56.666 33 -75.999s51.667 -29 89 -29z" />
    <glyph glyph-name="colon" unicode=":" horiz-adv-x="296" 
d="M67 376v160h162v-160h-162zM67 0v160h162v-160h-162z" />
    <glyph glyph-name="semicolon" unicode=";" horiz-adv-x="296" 
d="M67 376v160h162v-160h-162zM44 -162l-13 63.001c65.333 7.33301 98 36.666 98 87.999v11h-62v160h162v-135c0 -64 -15.5 -110.833 -46.5 -140.5s-77.167 -45.167 -138.5 -46.5z" />
    <glyph glyph-name="less" unicode="&#x3c;" horiz-adv-x="640" 
d="M552 71l-484 212v138l484 212v-141l-338 -139l338 -139v-143z" />
    <glyph glyph-name="equal" unicode="=" horiz-adv-x="640" 
d="M83 413v138h474v-138h-474zM83 153v138h474v-138h-474z" />
    <glyph glyph-name="greater" unicode="&#x3e;" horiz-adv-x="640" 
d="M88 71v141l338 139l-338 139v143l484 -212v-138z" />
    <glyph glyph-name="question" unicode="?" horiz-adv-x="544" 
d="M197 238l-23 162l5 5c116.667 4.66699 175 35.667 175 93c0 22.667 -8 40.167 -24 52.5s-38.667 18.5 -68 18.5c-54 0 -104 -23 -150 -69l-92 101c65.333 72 147 108 245 108c73.333 0 132 -18.333 176 -55s66 -88 66 -154c0 -107.333 -65.667 -174.333 -197 -201
l-11 -61h-102zM164 0v160h162v-160h-162z" />
    <glyph glyph-name="at" unicode="@" horiz-adv-x="980" 
d="M499 -162c-126.667 0 -232.667 42.501 -318 127.501s-128 187.833 -128 308.5c0 120 42.5 223 127.5 309s188.5 129 310.5 129c120 0 222.667 -39.833 308 -119.5s128 -171.834 128 -276.501c0 -80 -18.667 -141.833 -56 -185.5s-85 -65.5 -143 -65.5
c-67.333 0 -118.333 20 -153 60c-44 -40 -93.333 -60 -148 -60c-52 0 -95.5 17.667 -130.5 53s-52.5 82 -52.5 140c0 69.333 22.5 128.5 67.5 177.5s97.167 73.5 156.5 73.5c58.667 0 104.667 -22.667 138 -68l11 53l118 -19l-47 -269c-2 -10 -3 -20.333 -3 -31
c0 -18.667 6.5 -33.834 19.5 -45.501s30.833 -17.5 53.5 -17.5c36.667 0 67 18 91 54s36 86 36 150c0 94.667 -38.167 177.667 -114.5 249s-169.5 107 -279.5 107c-112 0 -206 -38.667 -282 -116s-114 -171.333 -114 -282c0 -111.333 38.167 -205.166 114.5 -281.499
s172.833 -114.5 289.5 -114.5c87.333 0 169 22.333 245 67l20 -32c-82 -50 -170.333 -75 -265 -75zM462 168.001c32 0 59.833 13.8311 83.5 41.498s35.5 61.834 35.5 102.501c0 28 -8.66699 50.667 -26 68s-39.666 26 -66.999 26c-32.667 0 -60.834 -13.667 -84.501 -41
s-35.5 -60.666 -35.5 -99.999c0 -30.667 8.66699 -54.5 26 -71.5s40 -25.5 68 -25.5z" />
    <glyph glyph-name="A" unicode="A" horiz-adv-x="790" 
d="M24 0l300 705h142l300 -705h-161l-64 157h-296l-64 -157h-157zM300 293h186l-93 227z" />
    <glyph glyph-name="B" unicode="B" horiz-adv-x="722" 
d="M84 0v700.001h325c80.667 0 141.667 -20.667 183 -62c32 -32 48 -72.333 48 -121c0 -66 -30.667 -116.333 -92 -151c43.333 -16.667 76 -38.5 98 -65.5s33 -63.167 33 -108.5c0 -62.667 -23.333 -110.334 -70 -143.001s-110.667 -49 -192 -49h-333zM234 417.001
l142 0.000976562c74 0 111 25.333 111 76c0 23.333 -8.66699 41.166 -26 53.499s-42.333 18.5 -75 18.5h-152v-148zM234 135.002h183c72.667 0 109 26 109 78c0 50.667 -38 76 -114 76h-178v-154z" />
    <glyph glyph-name="C" unicode="C" horiz-adv-x="738" 
d="M412 -12c-102.667 0 -188.166 34.835 -256.499 104.502s-102.5 155.5 -102.5 257.5c0 101.333 34.333 187 103 257s156 105 262 105c60.667 0 111.667 -9.83301 153 -29.5s80.666 -47.834 117.999 -84.501l-92 -106c-30 27.333 -58.167 47.166 -84.5 59.499
s-58.166 18.5 -95.499 18.5c-58.667 0 -107.167 -21.167 -145.5 -63.5s-57.5 -94.5 -57.5 -156.5c0 -61.333 19.167 -113.333 57.5 -156s86.833 -64 145.5 -64c37.333 0 69.666 6.66699 96.999 20s56.333 34 87 62l98 -105c-38 -40.667 -79.167 -70.667 -123.5 -90
s-98.833 -29 -163.5 -29z" />
    <glyph glyph-name="D" unicode="D" horiz-adv-x="782" 
d="M84 0l0.00195312 700h273c109.333 0 198.666 -33.167 267.999 -99.5s104 -149.833 104 -250.5c0 -100 -34.833 -183.333 -104.5 -250s-158.834 -100 -267.501 -100h-273zM238.002 139h119c63.333 0 114.333 19.5 153 58.5s58 89.833 58 152.5
c0 62 -19.5 112.667 -58.5 152s-89.833 59 -152.5 59h-119v-422z" />
    <glyph glyph-name="E" unicode="E" horiz-adv-x="670" 
d="M84 0v700h528v-137h-375v-142h330v-137h-330v-147h380v-137h-533z" />
    <glyph glyph-name="F" unicode="F" horiz-adv-x="656" 
d="M84 0v700h533v-140h-379v-149h334v-140h-334v-271h-154z" />
    <glyph glyph-name="G" unicode="G" horiz-adv-x="784" 
d="M421 -12c-108.667 0 -197.167 34.001 -265.5 102.001s-102.5 154.667 -102.5 260c0 100.667 35 186.167 105 256.5s157.333 105.5 262 105.5c60.667 0 112 -7.83301 154 -23.5s82.333 -39.834 121 -72.501l-97 -117c-29.333 24.667 -57.666 42.667 -84.999 54
s-60 17 -98 17c-56 0 -103.5 -21.5 -142.5 -64.5s-58.5 -94.833 -58.5 -155.5c0 -64 19.833 -117 59.5 -159s90.5 -63 152.5 -63c57.333 0 105.666 14 144.999 42v100h-155v133h304v-304c-87.333 -74 -187 -111 -299 -111z" />
    <glyph glyph-name="H" unicode="H" horiz-adv-x="760" 
d="M84 0v700h154v-277h284v277h154v-700h-154v281h-284v-281h-154z" />
    <glyph glyph-name="I" unicode="I" horiz-adv-x="336" 
d="M91 0v700h154v-700h-154z" />
    <glyph glyph-name="J" unicode="J" horiz-adv-x="564" 
d="M243 -10c-94 0 -170.334 35 -229.001 105l97 108c42.667 -46.667 85.334 -70 128.001 -70c62.667 0 94 38.667 94 116v451h158v-458c0 -80.667 -22 -143 -66 -187c-43.333 -43.333 -104 -65 -182 -65z" />
    <glyph glyph-name="K" unicode="K" horiz-adv-x="730" 
d="M84 0v700h154v-306l284 306h186l-285 -297l298 -403h-185l-217 298l-81 -84v-214h-154z" />
    <glyph glyph-name="L" unicode="L" horiz-adv-x="619" 
d="M84 0v700h154v-560h349v-140h-503z" />
    <glyph glyph-name="M" unicode="M" horiz-adv-x="868" 
d="M84 0v700h166l184 -296l184 296h166v-700h-153v457l-197 -299h-4l-195 296v-454h-151z" />
    <glyph glyph-name="N" unicode="N" horiz-adv-x="790" 
d="M84 0v700h142l328 -431v431h152v-700h-131l-339 445v-445h-152z" />
    <glyph glyph-name="O" unicode="O" horiz-adv-x="850" 
d="M424 -12c-106.667 0 -195.167 35 -265.5 105s-105.5 155.667 -105.5 257c0 100.667 35.5 186.167 106.5 256.5s159.833 105.5 266.5 105.5s195.167 -35 265.5 -105s105.5 -155.667 105.5 -257c0 -100.667 -35.5 -186.167 -106.5 -256.5s-159.833 -105.5 -266.5 -105.5z
M426 130c61.333 0 111.666 21.167 150.999 63.5s59 94.5 59 156.5c0 61.333 -20 113.333 -60 156s-90.667 64 -152 64s-111.666 -21.167 -150.999 -63.5s-59 -94.5 -59 -156.5c0 -61.333 20 -113.333 60 -156s90.667 -64 152 -64z" />
    <glyph glyph-name="P" unicode="P" horiz-adv-x="668" 
d="M84 0v700h286c82.667 0 148 -22.333 196 -67s72 -103.667 72 -177c0 -78 -26.667 -138.5 -80 -181.5s-121 -64.5 -203 -64.5h-117v-210h-154zM238 347h122c38 0 67.833 10 89.5 30s32.5 46 32.5 78c0 34 -11 60.167 -33 78.5s-52.667 27.5 -92 27.5h-119v-214z" />
    <glyph glyph-name="Q" unicode="Q" horiz-adv-x="850" 
d="M709 -21l-77 69c-62 -40 -131.333 -60 -208 -60c-106.667 0 -195.167 35 -265.5 105s-105.5 155.667 -105.5 257c0 100.667 35.5 186.167 106.5 256.5s159.833 105.5 266.5 105.5s195.167 -35 265.5 -105s105.5 -155.667 105.5 -257c0 -74 -20.667 -141 -62 -201l72 -61z
M426 130c32.667 0 63.332 6.33301 91.999 19l-114 97l98 110l115 -104c12.667 28 19 60.667 19 98c0 61.333 -20 113.333 -60 156s-90.667 64 -152 64s-111.666 -21.167 -150.999 -63.5s-59 -94.5 -59 -156.5c0 -61.333 20 -113.333 60 -156s90.667 -64 152 -64z" />
    <glyph glyph-name="R" unicode="R" horiz-adv-x="723" 
d="M84 0v699.999h320c88.667 0 156.667 -23.667 204 -71c40 -40 60 -94 60 -162c0 -107.333 -50 -179.666 -150 -216.999l171 -250h-180l-152 224h-119v-224h-154zM238 359.999h156c37.333 0 66.333 9.16699 87 27.5s31 42.833 31 73.5c0 32.667 -10.667 57.5 -32 74.5
s-51 25.5 -89 25.5h-153v-201z" />
    <glyph glyph-name="S" unicode="S" horiz-adv-x="640" 
d="M333 -10c-114.667 0 -213.667 37.334 -297 112.001l91 109c68.667 -56.667 138.334 -85 209.001 -85c31.333 0 56 6 74 18s27 28.667 27 50c0 20 -9.33301 36.167 -28 48.5s-56.334 25.833 -113.001 40.5c-40 10 -72.333 19.833 -97 29.5s-48.167 22.5 -70.5 38.5
s-38.666 36.167 -48.999 60.5s-15.5 53.5 -15.5 87.5c0 63.333 22.833 114.333 68.5 153s104.5 58 176.5 58c99.333 0 186 -29.667 260 -89l-80 -116c-66 46 -126.667 69 -182 69c-28.667 0 -50.834 -5.83301 -66.501 -17.5s-23.5 -26.834 -23.5 -45.501
c0 -22.667 9.66699 -39.667 29 -51s60 -25 122 -41c76 -20 132 -45.667 168 -77s54 -76.333 54 -135c0 -68 -23.5 -121.167 -70.5 -159.5s-109.167 -57.5 -186.5 -57.5z" />
    <glyph glyph-name="T" unicode="T" horiz-adv-x="648" 
d="M247 0v558h-213v142h580v-142h-213v-558h-154z" />
    <glyph glyph-name="U" unicode="U" horiz-adv-x="756" 
d="M376 -11c-95.333 0 -169.667 26.499 -223 79.499s-80 130.167 -80 231.5v400h154v-396c0 -56 13.167 -98.833 39.5 -128.5s63.5 -44.5 111.5 -44.5s85.167 14.333 111.5 43s39.5 70.334 39.5 125.001v401h154v-395c0 -104 -27.167 -182.667 -81.5 -236
s-129.5 -80 -225.5 -80z" />
    <glyph glyph-name="V" unicode="V" horiz-adv-x="750" 
d="M307 -5l-283 705h170l183 -493l183 493h166l-283 -705h-136z" />
    <glyph glyph-name="W" unicode="W" horiz-adv-x="1122" 
d="M269 -5l-239 705h165l145 -474l157 476h132l157 -476l145 474h161l-239 -705h-134l-158 458l-158 -458h-134z" />
    <glyph glyph-name="X" unicode="X" horiz-adv-x="732" 
d="M31 0l244 356l-234 344h180l147 -227l148 227h175l-234 -342l244 -358h-180l-157 240l-158 -240h-175z" />
    <glyph glyph-name="Y" unicode="Y" horiz-adv-x="716" 
d="M281 0v276l-269 424h180l167 -281l170 281h175l-269 -421v-279h-154z" />
    <glyph glyph-name="Z" unicode="Z" horiz-adv-x="708" 
d="M63 0v117l385 448h-373v135h571v-117l-385 -448h385v-135h-583z" />
    <glyph glyph-name="bracketleft" unicode="[" horiz-adv-x="465" 
d="M83 -130v830h323v-119h-177v-592h177v-119h-323z" />
    <glyph glyph-name="backslash" unicode="\" horiz-adv-x="530" 
d="M429 -128l-443 926h129l443 -926h-129z" />
    <glyph glyph-name="bracketright" unicode="]" horiz-adv-x="465" 
d="M59 -130v119h177v592h-177v119h323v-830h-323z" />
    <glyph glyph-name="asciicircum" unicode="^" 
d="M50 493l148 207h104l148 -207h-110l-91 117l-91 -117h-108z" />
    <glyph glyph-name="underscore" unicode="_" horiz-adv-x="600" 
d="M-2 -160v116h604v-116h-604z" />
    <glyph glyph-name="grave" unicode="`" 
d="M238 595l-128 120l131 57l113 -177h-116z" />
    <glyph glyph-name="a" unicode="a" horiz-adv-x="592" 
d="M220 -10c-52.667 0 -96.5 14.666 -131.5 43.999s-52.5 70 -52.5 122c0 56.667 19.5 99.334 58.5 128.001s91.5 43 157.5 43c44.667 0 88.334 -7.33301 131.001 -22v9c0 65.333 -38.333 98 -115 98c-46 0 -95.333 -9.66699 -148 -29l-38 116
c65.333 28.667 134.666 43 207.999 43c80.667 0 141 -20 181 -60c38.667 -38.667 58 -95.667 58 -171v-311h-147v58c-40.667 -45.333 -94.667 -68 -162 -68zM266 94.999c35.333 0 63.999 8.83301 85.999 26.5s33 40.167 33 67.5v27c-28.667 13.333 -61 20 -97 20
c-33.333 0 -59.166 -6.5 -77.499 -19.5s-27.5 -31.833 -27.5 -56.5c0 -20 7.66699 -35.833 23 -47.5s35.333 -17.5 60 -17.5z" />
    <glyph glyph-name="b" unicode="b" horiz-adv-x="675" 
d="M387 -10c-66.667 0 -122.334 26.667 -167.001 80v-70h-152v730h152v-271c42.667 58 98.334 87 167.001 87c66.667 0 124 -25 172 -75s72 -118 72 -204c0 -85.333 -23.833 -152.833 -71.5 -202.5s-105.167 -74.5 -172.5 -74.5zM348 119c36.667 0 67.667 13.833 93 41.5
s38 63.834 38 108.501c0 43.333 -12.667 78.833 -38 106.5s-56.333 41.5 -93 41.5s-67.5 -13.833 -92.5 -41.5s-37.5 -63.834 -37.5 -108.501c0 -43.333 12.5 -78.833 37.5 -106.5s55.833 -41.5 92.5 -41.5z" />
    <glyph glyph-name="c" unicode="c" horiz-adv-x="571" 
d="M321 -12c-80 0 -146.501 27.001 -199.501 81.001s-79.5 120 -79.5 198c0 77.333 26.667 143.166 80 197.499s120.333 81.5 201 81.5c86 0 157 -31.333 213 -94l-89 -90c-37.333 35.333 -79 53 -125 53c-37.333 0 -68.333 -14.333 -93 -43s-37 -63.667 -37 -105
c0 -42 12.5 -77.167 37.5 -105.5s57.833 -42.5 98.5 -42.5c42 0 83 19 123 57l89 -90c-29.333 -32 -60.666 -56.333 -93.999 -73s-75 -25 -125 -25z" />
    <glyph glyph-name="d" unicode="d" horiz-adv-x="675" 
d="M288 -10c-66.667 0 -124 25 -172 75s-72 118 -72 204c0 85.333 23.833 152.833 71.5 202.5s105.167 74.5 172.5 74.5c66.667 0 122.334 -26.667 167.001 -80v264h152v-730h-152v77c-42.667 -58 -98.334 -87 -167.001 -87zM327 119c36.667 0 67.5 13.833 92.5 41.5
s37.5 63.834 37.5 108.501c0 43.333 -12.5 78.833 -37.5 106.5s-55.833 41.5 -92.5 41.5s-67.667 -13.833 -93 -41.5s-38 -63.834 -38 -108.501c0 -43.333 12.667 -78.833 38 -106.5s56.333 -41.5 93 -41.5z" />
    <glyph glyph-name="e" unicode="e" horiz-adv-x="613" 
d="M322 -12c-81.333 0 -148.334 25.832 -201.001 77.499s-79 118.834 -79 201.501c0 78 25 144 75 198s113.333 81 190 81c84.667 0 149.334 -28 194.001 -84s67 -125 67 -207c0 -8 -0.666992 -21.333 -2 -40h-373c7.33301 -34 22.333 -60 45 -78s51.334 -27 86.001 -27
c47.333 0 90.666 18.333 129.999 55l87 -77c-54 -66.667 -127 -100 -219 -100zM190.999 309.999l229.001 -0.00195312c-4.66699 34.667 -16.834 62.334 -36.501 83.001s-45.167 31 -76.5 31c-30.667 0 -56.167 -10.167 -76.5 -30.5s-33.5 -48.166 -39.5 -83.499z" />
    <glyph glyph-name="f" unicode="f" horiz-adv-x="382" 
d="M94 0v406h-63v125h63v34c0 58 14.333 101.333 43 130c28 28 69 42 123 42c40.667 0 76.667 -5 108 -15v-126c-24 8.66699 -47 13 -69 13c-36.667 0 -55 -19.333 -55 -58v-21h123v-124h-121v-406h-152z" />
    <glyph glyph-name="g" unicode="g" horiz-adv-x="675" 
d="M308 -162c-87.333 0 -166.334 18.666 -237.001 55.999l52 114c58 -32.667 118.333 -49 181 -49c102 0 153 48.667 153 146v26c-24 -29.333 -49.5 -51.166 -76.5 -65.499s-59.833 -21.5 -98.5 -21.5c-66 0 -122.167 22.667 -168.5 68s-69.5 106.666 -69.5 183.999
c0 76.667 23.333 137.5 70 182.5s102.667 67.5 168 67.5c66.667 0 124.334 -26.667 173.001 -80v70h152v-415c0 -95.333 -22.667 -165.666 -68 -210.999c-48 -48 -125 -72 -231 -72zM325.999 169.999c37.333 0 68.5 11.667 93.5 35s37.5 53.666 37.5 90.999
c0 36 -12.5 65.667 -37.5 89s-56.167 35 -93.5 35s-68.333 -11.667 -93 -35s-37 -53.666 -37 -90.999c0 -36.667 12.333 -66.5 37 -89.5s55.667 -34.5 93 -34.5z" />
    <glyph glyph-name="h" unicode="h" horiz-adv-x="623" 
d="M68 0v730h152v-270c44.667 57.333 97 86 157 86c57.333 0 102 -17.667 134 -53s48 -84 48 -146v-347h-152v299c0 35.333 -8 62.333 -24 81s-38.667 28 -68 28s-52.5 -9.33301 -69.5 -28s-25.5 -45.667 -25.5 -81v-299h-152z" />
    <glyph glyph-name="i" unicode="i" horiz-adv-x="302" 
d="M71 595v135h160v-135h-160zM75 0v536h152v-536h-152z" />
    <glyph glyph-name="j" unicode="j" horiz-adv-x="302" 
d="M71 595v135h160v-135h-160zM55 -163c-23.333 0 -45.333 2 -66 6v119c12 -2 22.667 -3 32 -3c36 0 54 20.667 54 62v515h152v-527c0 -114.667 -57.333 -172 -172 -172z" />
    <glyph glyph-name="k" unicode="k" horiz-adv-x="592" 
d="M68 0v730h152v-389l178 195h182l-204 -211l211 -325h-174l-140 219l-53 -56v-163h-152z" />
    <glyph glyph-name="l" unicode="l" horiz-adv-x="302" 
d="M75 0v730h152v-730h-152z" />
    <glyph glyph-name="m" unicode="m" horiz-adv-x="950" 
d="M68 0l-0.000976562 536h152v-76c44.667 57.333 97.334 86 158.001 86c71.333 0 121.666 -28.333 150.999 -85c48.667 56.667 107.334 85 176.001 85c57.333 0 101.833 -16.833 133.5 -50.5s47.5 -82.5 47.5 -146.5v-349h-152v299c0 72.667 -29.667 109 -89 109
c-28.667 0 -51.167 -9.33301 -67.5 -28s-24.5 -45.667 -24.5 -81v-299h-152v299c0 72.667 -29.667 109 -89 109c-28.667 0 -51.167 -9.33301 -67.5 -28s-24.5 -45.667 -24.5 -81v-299h-152z" />
    <glyph glyph-name="n" unicode="n" horiz-adv-x="623" 
d="M68 0v536h152v-76c44.667 57.333 97 86 157 86c57.333 0 102 -17.667 134 -53s48 -84 48 -146v-347h-152v299c0 35.333 -8 62.333 -24 81s-38.667 28 -68 28s-52.5 -9.33301 -69.5 -28s-25.5 -45.667 -25.5 -81v-299h-152z" />
    <glyph glyph-name="o" unicode="o" horiz-adv-x="664" 
d="M331 -12c-82.667 0 -151.5 26.833 -206.5 80.5s-82.5 119.834 -82.5 198.501c0 78 27.833 144 83.5 198s124.834 81 207.501 81s151.5 -26.833 206.5 -80.5s82.5 -119.834 82.5 -198.501c0 -78 -27.833 -144 -83.5 -198s-124.834 -81 -207.501 -81zM333 119
c42 0 75.667 14.167 101 42.5s38 63.5 38 105.5c0 40.667 -13.167 75.5 -39.5 104.5s-60.166 43.5 -101.499 43.5c-42 0 -75.667 -14.167 -101 -42.5s-38 -63.5 -38 -105.5c0 -40.667 13.167 -75.5 39.5 -104.5s60.166 -43.5 101.499 -43.5z" />
    <glyph glyph-name="p" unicode="p" horiz-adv-x="675" 
d="M68 -160v696h152v-77c42.667 58 98.334 87 167.001 87c66.667 0 124 -25 172 -75s72 -118 72 -204c0 -85.333 -23.833 -152.833 -71.5 -202.5s-105.167 -74.5 -172.5 -74.5c-66.667 0 -122.334 26.667 -167.001 80v-230h-152zM348 119c36.667 0 67.667 13.833 93 41.5
s38 63.834 38 108.501c0 43.333 -12.667 78.833 -38 106.5s-56.333 41.5 -93 41.5s-67.5 -13.833 -92.5 -41.5s-37.5 -63.834 -37.5 -108.501c0 -43.333 12.5 -78.833 37.5 -106.5s55.833 -41.5 92.5 -41.5z" />
    <glyph glyph-name="q" unicode="q" horiz-adv-x="675" 
d="M455 -160v237c-42.667 -58 -98.334 -87 -167.001 -87c-66.667 0 -124 25 -172 75s-72 118 -72 204c0 85.333 23.833 152.833 71.5 202.5s105.167 74.5 172.5 74.5c66.667 0 122.334 -26.667 167.001 -80v70h152v-696h-152zM327 119c36.667 0 67.5 13.833 92.5 41.5
s37.5 63.834 37.5 108.501c0 43.333 -12.5 78.833 -37.5 106.5s-55.833 41.5 -92.5 41.5s-67.667 -13.833 -93 -41.5s-38 -63.834 -38 -108.501c0 -43.333 12.667 -78.833 38 -106.5s56.333 -41.5 93 -41.5z" />
    <glyph glyph-name="r" unicode="r" horiz-adv-x="418" 
d="M68 0v536.001h152v-108c34.667 82 91.667 121.333 171 118v-159h-8c-52 0 -92.167 -15.833 -120.5 -47.5s-42.5 -78.834 -42.5 -141.501v-198h-152z" />
    <glyph glyph-name="s" unicode="s" horiz-adv-x="502" 
d="M256 -10c-84.667 0 -161.331 27.001 -229.998 81.001l65 100c58.667 -42.667 115 -64 169 -64c42.667 0 64 14 64 42c0 3.33301 -0.5 6.66602 -1.5 9.99902s-2.83301 6.33301 -5.5 9s-5.5 5.16699 -8.5 7.5s-7 4.66602 -12 6.99902l-13 6
c-3.66699 1.66699 -8.83398 3.66699 -15.501 6s-12.334 4.16602 -17.001 5.49902l-19 5.5l-19 5.5c-22.667 6.66699 -41.834 13.5 -57.501 20.5s-32.167 16.667 -49.5 29s-30.5 28 -39.5 47s-13.5 41.167 -13.5 66.5c0 52.667 18.667 94.167 56 124.5s84 45.5 140 45.5
c72 0 138.667 -20.667 200 -62l-58 -105c-56.667 33.333 -105 50 -145 50c-37.333 0 -56 -13 -56 -39c0 -18 30.667 -37.333 92 -58c7.33301 -2.66699 13 -4.66699 17 -6c18 -6 33.333 -11.667 46 -17s27 -12.666 43 -21.999s28.833 -19.166 38.5 -29.499
s17.834 -23.5 24.501 -39.5s10 -33.667 10 -53c0 -57.333 -18.833 -100.5 -56.5 -129.5s-87.167 -43.5 -148.5 -43.5z" />
    <glyph glyph-name="t" unicode="t" horiz-adv-x="415" 
d="M249 -9c-50 0 -88.5 12.167 -115.5 36.5s-40.5 65.833 -40.5 124.5v254h-64v130h64v137h152v-137h126v-130h-126v-229c0 -34.667 16.333 -52 49 -52c26.667 0 51.667 6.33301 75 19v-122c-34.667 -20.667 -74.667 -31 -120 -31z" />
    <glyph glyph-name="u" unicode="u" horiz-adv-x="623" 
d="M246 -10c-57.333 0 -102 17.667 -134 53s-48 84 -48 146v347h152v-299c0 -35.333 8 -62.333 24 -81s38.667 -28 68 -28s52.5 9.33301 69.5 28s25.5 45.667 25.5 81v299h152v-536h-152v76c-44.667 -57.333 -97 -86 -157 -86z" />
    <glyph glyph-name="v" unicode="v" horiz-adv-x="600" 
d="M231 -4l-211 540h161l120 -359l121 359h158l-211 -540h-138z" />
    <glyph glyph-name="w" unicode="w" horiz-adv-x="861" 
d="M189 -4l-165 540h154l86 -325l101 327h131l102 -328l88 326h151l-167 -540h-137l-103 329l-105 -329h-136z" />
    <glyph glyph-name="x" unicode="x" horiz-adv-x="584" 
d="M23 0l188 272l-181 264h163l100 -156l101 156h159l-181 -261l189 -275h-163l-108 167l-108 -167h-159z" />
    <glyph glyph-name="y" unicode="y" horiz-adv-x="600" 
d="M196 -163c-48 0 -93 12.332 -135 36.999l51 110c23.333 -14 45 -21 65 -21c24 0 41.667 11.667 53 35l-210 538h161l122 -365l117 365h158l-206 -549c-20.667 -55.333 -44 -94.166 -70 -116.499s-61.333 -33.5 -106 -33.5z" />
    <glyph glyph-name="z" unicode="z" horiz-adv-x="563" 
d="M50 0v107l277 306h-268v123h457v-107l-278 -306h278v-123h-466z" />
    <glyph glyph-name="braceleft" unicode="{" horiz-adv-x="490" 
d="M416 -141c-88 15.333 -149 38.6699 -183 70.0029s-51 74 -51 128c0 4.66699 0.5 15.834 1.5 33.501s1.5 29.5 1.5 35.5c0 38.667 -8.33301 65.5 -25 80.5s-45 22.5 -85 22.5h-26v116h26c40 0 68.333 7.5 85 22.5s25 41.833 25 80.5c0 6 -0.5 17.833 -1.5 35.5
s-1.5 28.834 -1.5 33.501c0 54 17 96.667 51 128s95 54.666 183 69.999l27 -101c-50.667 -14.667 -83.667 -30.167 -99 -46.5s-23 -40.5 -23 -72.5c0 -6.66699 0.5 -18.834 1.5 -36.501s1.5 -30.167 1.5 -37.5c0 -66.667 -34.667 -111.334 -104 -134.001
c69.333 -22.667 104 -67.334 104 -134.001c0 -7.33301 -0.5 -19.833 -1.5 -37.5s-1.5 -29.834 -1.5 -36.501c0 -32 7.66699 -56.167 23 -72.5s48.333 -31.833 99 -46.5z" />
    <glyph glyph-name="bar" unicode="|" horiz-adv-x="350" 
d="M115 -128v926h120v-926h-120z" />
    <glyph glyph-name="braceright" unicode="}" horiz-adv-x="490" 
d="M74 -141l-27 100.996c50.667 14.667 83.667 30.167 99 46.5s23 40.5 23 72.5c0 6.66699 -0.5 18.834 -1.5 36.501s-1.5 30.167 -1.5 37.5c0 66.667 34.667 111.334 104 134.001c-69.333 22.667 -104 67.334 -104 134.001c0 7.33301 0.5 19.833 1.5 37.5
s1.5 29.834 1.5 36.501c0 32 -7.66699 56.167 -23 72.5s-48.333 31.833 -99 46.5l27 101c88 -15.333 149 -38.666 183 -69.999s51 -74 51 -128c0 -4.66699 -0.5 -15.834 -1.5 -33.501s-1.5 -29.5 -1.5 -35.5c0 -38.667 8.33301 -65.5 25 -80.5s45 -22.5 85 -22.5h26v-116
h-26c-40 0 -68.333 -7.5 -85 -22.5s-25 -41.833 -25 -80.5c0 -6 0.5 -17.833 1.5 -35.5s1.5 -28.834 1.5 -33.501c0 -54 -17 -96.667 -51 -128s-95 -54.666 -183 -69.999z" />
    <glyph glyph-name="asciitilde" unicode="~" horiz-adv-x="510" 
d="M130 224l-81 25c12.667 46 28.334 80.5 47.001 103.5s44.334 34.5 77.001 34.5c22.667 0 50.834 -6.5 84.501 -19.5s55.5 -19.5 65.5 -19.5c14.667 0 25.834 3.83301 33.501 11.5s15.5 20.167 23.5 37.5l81 -25c-12.667 -46 -28.334 -80.5 -47.001 -103.5
s-44.334 -34.5 -77.001 -34.5c-22.667 0 -50.834 6.5 -84.501 19.5s-55.5 19.5 -65.5 19.5c-14.667 0 -25.834 -3.83301 -33.501 -11.5s-15.5 -20.167 -23.5 -37.5z" />
    <glyph glyph-name="nbspace" unicode="&#xa0;" horiz-adv-x="300" 
 />
    <glyph glyph-name="exclamdown" unicode="&#xa1;" horiz-adv-x="324" 
d="M81 540v160h162v-160h-162zM73 0v20l47 442h84l47 -442v-20h-178z" />
    <glyph glyph-name="cent" unicode="&#xa2;" horiz-adv-x="581" 
d="M208 -6l19 97.999c-54 20 -97.5 53.833 -130.5 101.5s-49.5 101.5 -49.5 161.5c0 78 26.667 144 80 198s120 81 200 81h6l14 72h104l-17 -88c39.333 -13.333 75.333 -38 108 -74l-90 -97c-18 18 -34.333 30.667 -49 38l-55 -277c36.667 4.66699 72.667 23.334 108 56.001
l86 -87c-58.667 -65.333 -130 -99 -214 -101l-16 -82h-104zM258 225.999l54 277c-34.667 -2.66699 -63 -18 -85 -46s-33 -62 -33 -102c0 -60 21.333 -103 64 -129z" />
    <glyph glyph-name="sterling" unicode="&#xa3;" horiz-adv-x="644" 
d="M60 0v101.001l76 25v141h-76v127h76v81c0 74 20 131 60 171c42.667 42.667 101.667 64 177 64c93.333 0 168.333 -38.333 225 -115l-117 -94c-18 23.333 -35 40.166 -51 50.499s-34.333 15.5 -55 15.5c-23.333 0 -42.333 -7.33301 -57 -22
c-17.333 -17.333 -26 -42 -26 -74v-77h228v-127h-228v-134h304v-133h-536z" />
    <glyph glyph-name="currency" unicode="&#xa4;" horiz-adv-x="720" 
d="M437 -12c-74.667 0 -137.665 20.501 -188.998 61.501s-87 96.833 -107 167.5h-92v101h75c-0.666992 6.66699 -1 17.334 -1 32.001c0 16 0.333008 28 1 36h-75v101h94c21.333 68 57.333 122.5 108 163.5s111.667 61.5 183 61.5c58 0 106.167 -11 144.5 -33
s72.166 -53.667 101.499 -95l-116 -88c-20 26.667 -40.167 46.5 -60.5 59.5s-44.5 19.5 -72.5 19.5c-58 0 -100.667 -29.333 -128 -88h185v-101h-208c-0.666992 -7.33301 -1 -19.333 -1 -36c0 -14.667 0.333008 -25.334 1 -32.001h208v-101h-186
c27.333 -61.333 72.333 -92 135 -92c27.333 0 50.666 6.33301 69.999 19s41 33.667 65 63l110 -81c-32 -44.667 -67.333 -78.834 -106 -102.501s-85 -35.5 -139 -35.5z" />
    <glyph glyph-name="yen" unicode="&#xa5;" horiz-adv-x="686" 
d="M269 0v92h-184v108h184v62h-184v108h143l-214 330h177l154 -259l155 259h172l-216 -330h145v-108h-184v-62h184v-108h-184v-92h-148z" />
    <glyph glyph-name="brokenbar" unicode="&#xa6;" horiz-adv-x="222" 
d="M182 411h-142v250h142v-250zM182 -89h-142v250h142v-250z" />
    <glyph glyph-name="section" unicode="&#xa7;" horiz-adv-x="632" 
d="M325 -10c-97.333 0 -175.001 31.667 -233.001 95l82 82c48 -44 97 -66 147 -66c44 0 66 12.667 66 38c0 12 -7.5 21.833 -22.5 29.5s-44.167 16.167 -87.5 25.5c-80 18 -137 38.167 -171 60.5s-51 52.5 -51 90.5c0 56 29.667 95 89 117c-28 22 -42 53 -42 93
c0 48 18.167 85.833 54.5 113.5s86.5 41.5 150.5 41.5c97.333 0 175 -31.667 233 -95l-82 -82c-48 44 -97 66 -147 66c-44 0 -66 -12.667 -66 -38c0 -11.333 7 -20.833 21 -28.5s43.667 -16.5 89 -26.5c80.667 -18 137.834 -38 171.501 -60s50.5 -52.333 50.5 -91
c0 -56 -29.667 -95 -89 -117c28 -22 42 -53 42 -93c0 -47.333 -18.167 -85 -54.5 -113s-86.5 -42 -150.5 -42zM388.999 289c16 0 29.167 4 39.5 12s15.5 19.333 15.5 34c0 12.667 -7.83301 23.334 -23.5 32.001s-41.5 17.334 -77.5 26.001c-48 12 -81.333 18 -100 18
c-16 0 -29.167 -4 -39.5 -12s-15.5 -19.333 -15.5 -34c0 -12.667 7.83301 -23.334 23.5 -32.001s41.5 -17.334 77.5 -26.001c48 -12 81.333 -18 100 -18z" />
    <glyph glyph-name="dieresis" unicode="&#xa8;" 
d="M284 595v135h146v-135h-146zM70 595v135h146v-135h-146z" />
    <glyph glyph-name="copyright" unicode="&#xa9;" horiz-adv-x="830" 
d="M414 -12c-100.667 0 -186 35.333 -256 106s-105 156 -105 256c0 99.333 35.333 184.5 106 255.5s156.334 106.5 257.001 106.5s186 -35.333 256 -106s105 -156 105 -256c0 -99.333 -35.333 -184.5 -106 -255.5s-156.334 -106.5 -257.001 -106.5zM414 28
c90.667 0 166.834 31.5 228.501 94.5s92.5 139.5 92.5 229.5c0 89.333 -30.5 165 -91.5 227s-136.833 93 -227.5 93s-166.834 -31.5 -228.501 -94.5s-92.5 -139.5 -92.5 -229.5c0 -89.333 30.5 -165 91.5 -227s136.833 -93 227.5 -93zM419 156
c-56 0 -102.833 19.167 -140.5 57.5s-56.5 85.5 -56.5 141.5c0 55.333 18.833 102.333 56.5 141s85.5 58 143.5 58c60.667 0 111.334 -19.667 152.001 -59l-55 -64c-32 28.667 -64.333 43 -97 43c-32 0 -58.333 -11.5 -79 -34.5s-31 -51.5 -31 -85.5
c0 -32.667 10.333 -60.5 31 -83.5s47 -34.5 79 -34.5c32.667 0 65.667 15 99 45l56 -56c-42.667 -46 -95.334 -69 -158.001 -69z" />
    <glyph glyph-name="ordfeminine" unicode="&#xaa;" horiz-adv-x="390" 
d="M153 399c-29.333 0 -53.5 8.16602 -72.5 24.499s-28.5 38.833 -28.5 67.5c0 30.667 10.667 54 32 70s50.333 24 87 24c24 0 48 -4 72 -12v5c0 36 -21.333 54 -64 54c-25.333 0 -52.333 -5.33301 -81 -16l-21 63c35.333 16 73.333 24 114 24c44.667 0 78 -11 100 -33
c21.333 -21.333 32 -52.666 32 -93.999v-171h-81v32c-22 -25.333 -51.667 -38 -89 -38zM49 276.999v66h278v-66h-278zM178 456.999c19.333 0 35.168 4.83398 47.501 14.501s18.5 22.167 18.5 37.5v15c-18.667 7.33301 -36.667 11 -54 11c-38 0 -57 -14 -57 -42
c0 -10.667 4.16699 -19.334 12.5 -26.001s19.166 -10 32.499 -10z" />
    <glyph glyph-name="guillemotleft" unicode="&#xab;" horiz-adv-x="645" 
d="M481 40l-168 224v8l168 224l116 -56l-130 -171l130 -171zM209 40l-168 224v8l168 224l116 -56l-130 -171l130 -171z" />
    <glyph glyph-name="logicalnot" unicode="&#xac;" horiz-adv-x="640" 
d="M418 412h-340v136h482v-306h-142v170z" />
    <glyph glyph-name="uni00AD" unicode="&#xad;" horiz-adv-x="408" 
d="M50 237v146h308v-146h-308z" />
    <glyph glyph-name="registered" unicode="&#xae;" horiz-adv-x="830" 
d="M414 -12c-100.667 0 -186 35.333 -256 106s-105 156 -105 256c0 99.333 35.333 184.5 106 255.5s156.334 106.5 257.001 106.5s186 -35.333 256 -106s105 -156 105 -256c0 -99.333 -35.333 -184.5 -106 -255.5s-156.334 -106.5 -257.001 -106.5zM414 28
c90.667 0 166.834 31.5 228.501 94.5s92.5 139.5 92.5 229.5c0 89.333 -30.5 165 -91.5 227s-136.833 93 -227.5 93s-166.834 -31.5 -228.501 -94.5s-92.5 -139.5 -92.5 -229.5c0 -89.333 30.5 -165 91.5 -227s136.833 -93 227.5 -93zM266 168v385h171
c51.333 0 91 -14 119 -42c21.333 -21.333 32 -50 32 -86c0 -59.333 -27.667 -99 -83 -119l94 -138h-99l-84 124h-65v-124h-85zM351 365l85.001 0.000976562c21.333 0 37.666 5.16699 48.999 15.5s17 24.166 17 41.499c0 37.333 -22.667 56 -68 56h-83v-113z" />
    <glyph glyph-name="macron" unicode="&#xaf;" 
d="M70 600v105h360v-105h-360z" />
    <glyph glyph-name="degree" unicode="&#xb0;" horiz-adv-x="480" 
d="M240 368c-46 0 -86.333 16.833 -121 50.5s-52 73.5 -52 119.5c0 45.333 17.333 84.666 52 117.999s75 50 121 50s86.333 -16.833 121 -50.5s52 -73.5 52 -119.5c0 -45.333 -17.333 -84.666 -52 -117.999s-75 -50 -121 -50zM240 443c26 0 47.833 9.33301 65.5 28
s26.5 41 26.5 67c0 25.333 -8.83301 47.166 -26.5 65.499s-39.5 27.5 -65.5 27.5s-47.833 -9.33301 -65.5 -28s-26.5 -41 -26.5 -67c0 -25.333 8.83301 -47.166 26.5 -65.499s39.5 -27.5 65.5 -27.5z" />
    <glyph glyph-name="plusminus" unicode="&#xb1;" horiz-adv-x="640" 
d="M78 17v129h484v-129h-484zM250 207v141h-181v136h181v141h141v-141h178v-136h-178v-141h-141z" />
    <glyph glyph-name="twosuperior" unicode="&#xb2;" 
d="M0 0v700h500v-700h-500zM81 49h339l-170 255zM49 96l171 254l-171 254v-508zM450 96v508l-171 -254zM250 395l170 255h-339z" />
    <glyph glyph-name="threesuperior" unicode="&#xb3;" 
d="M0 0v700h500v-700h-500zM81 49h339l-170 255zM49 96l171 254l-171 254v-508zM450 96v508l-171 -254zM250 395l170 255h-339z" />
    <glyph glyph-name="acute" unicode="&#xb4;" 
d="M146 595l113 177l131 -57l-128 -120h-116z" />
    <glyph glyph-name="mu" unicode="&#xb5;" horiz-adv-x="628" 
d="M220 10l0.000976562 -170h-152v696h152v-302c0 -30 8.66699 -55.833 26 -77.5s39 -32.5 65 -32.5c30 0 53.5 10.167 70.5 30.5s25.5 48.5 25.5 84.5v297h153v-536h-153v79c-34.667 -55.333 -80.334 -83 -137.001 -83c-26 0 -42.667 4.66699 -50 14z" />
    <glyph glyph-name="paragraph" unicode="&#xb6;" horiz-adv-x="590" 
d="M352 0l0.000976562 230h-24c-87.333 0 -158 20.167 -212 60.5s-81 98.5 -81 174.5c0 72.667 25.167 130 75.5 172s117.166 63 200.499 63h195v-700h-154z" />
    <glyph glyph-name="periodcentered" unicode="&#xb7;" horiz-adv-x="286" 
d="M62 230v160h162v-160h-162z" />
    <glyph glyph-name="cedilla" unicode="&#xb8;" 
d="M245 -173l-127 53l89 130h112z" />
    <glyph glyph-name="onesuperior" unicode="&#xb9;" 
d="M0 0v700h500v-700h-500zM81 49h339l-170 255zM49 96l171 254l-171 254v-508zM450 96v508l-171 -254zM250 395l170 255h-339z" />
    <glyph glyph-name="ordmasculine" unicode="&#xba;" horiz-adv-x="390" 
d="M194 398c-44 0 -80.5 14.667 -109.5 44s-43.5 66 -43.5 110c0 42.667 14.833 78.834 44.5 108.501s66.5 44.5 110.5 44.5s80.5 -14.667 109.5 -44s43.5 -66 43.5 -110c0 -42.667 -14.833 -78.834 -44.5 -108.501s-66.5 -44.5 -110.5 -44.5zM51 277v66h288v-66h-288z
M196 470c21.333 0 38.5 7.83301 51.5 23.5s19.5 35.167 19.5 58.5c0 22 -6.83301 41 -20.5 57s-31.167 24 -52.5 24s-38.5 -7.83301 -51.5 -23.5s-19.5 -35.167 -19.5 -58.5c0 -22 6.83301 -41 20.5 -57s31.167 -24 52.5 -24z" />
    <glyph glyph-name="guillemotright" unicode="&#xbb;" horiz-adv-x="645" 
d="M436 40l-116 56l130 171l-130 171l116 58l168 -224v-8zM164 40l-116 56l130 171l-130 171l116 58l168 -224v-8z" />
    <glyph glyph-name="onequarter" unicode="&#xbc;" 
d="M0 0v700h500v-700h-500zM81 49h339l-170 255zM49 96l171 254l-171 254v-508zM450 96v508l-171 -254zM250 395l170 255h-339z" />
    <glyph glyph-name="onehalf" unicode="&#xbd;" 
d="M0 0v700h500v-700h-500zM81 49h339l-170 255zM49 96l171 254l-171 254v-508zM450 96v508l-171 -254zM250 395l170 255h-339z" />
    <glyph glyph-name="threequarters" unicode="&#xbe;" 
d="M0 0v700h500v-700h-500zM81 49h339l-170 255zM49 96l171 254l-171 254v-508zM450 96v508l-171 -254zM250 395l170 255h-339z" />
    <glyph glyph-name="questiondown" unicode="&#xbf;" horiz-adv-x="544" 
d="M218 540v160h162v-160h-162zM279 -9c-73.333 0 -132 18.168 -176 54.501s-66 87.166 -66 152.499v2c0 107.333 65.667 174.333 197 201l11 61h102l23 -162l-5 -5c-116.667 -4.66699 -175 -35 -175 -91v-2c0 -22.667 8 -40.167 24 -52.5s38.667 -18.5 68 -18.5
c54 0 104 23 150 69l92 -101c-65.333 -72 -147 -108 -245 -108z" />
    <glyph glyph-name="Agrave" unicode="&#xc0;" horiz-adv-x="790" 
d="M24 0l300 705h142l300 -705h-161l-64 157h-296l-64 -157h-157zM300 293h186l-93 227zM343 755l-128 120l131 57l113 -177h-116z" />
    <glyph glyph-name="Aacute" unicode="&#xc1;" horiz-adv-x="790" 
d="M24 0l300 705h142l300 -705h-161l-64 157h-296l-64 -157h-157zM300 293h186l-93 227zM331 755l113 177l131 -57l-128 -120h-116z" />
    <glyph glyph-name="Acircumflex" unicode="&#xc2;" horiz-adv-x="790" 
d="M24 0l300 705h142l300 -705h-161l-64 157h-296l-64 -157h-157zM300 293h186l-93 227zM200 755l123 157h144l123 -157h-117l-79 66l-79 -66h-115z" />
    <glyph glyph-name="Atilde" unicode="&#xc3;" horiz-adv-x="790" 
d="M24 0l300 705h142l300 -705h-161l-64 157h-296l-64 -157h-157zM300 293h186l-93 227zM270 745l-81 25c12.667 46 28.334 80.5 47.001 103.5s44.334 34.5 77.001 34.5c22.667 0 50.834 -6.5 84.501 -19.5s55.5 -19.5 65.5 -19.5c14.667 0 25.834 3.83301 33.501 11.5
s15.5 20.167 23.5 37.5l81 -25c-12.667 -46 -28.334 -80.5 -47.001 -103.5s-44.334 -34.5 -77.001 -34.5c-22.667 0 -50.834 6.5 -84.501 19.5s-55.5 19.5 -65.5 19.5c-14.667 0 -25.834 -3.83301 -33.501 -11.5s-15.5 -20.167 -23.5 -37.5z" />
    <glyph glyph-name="Adieresis" unicode="&#xc4;" horiz-adv-x="790" 
d="M24 0l300 705h142l300 -705h-161l-64 157h-296l-64 -157h-157zM300 293h186l-93 227zM429 755v135h146v-135h-146zM215 755v135h146v-135h-146z" />
    <glyph glyph-name="Aring" unicode="&#xc5;" horiz-adv-x="790" 
d="M24 0l292 687c-28 24.667 -42 53.667 -42 87v2c0 31.333 12.167 58.5 36.5 81.5s52.5 34.5 84.5 34.5s60.167 -11.5 84.5 -34.5s36.5 -50.167 36.5 -81.5v-2c0 -33.333 -14 -62.333 -42 -87l292 -687h-161l-64 157h-296l-64 -157h-157zM395 713
c16.667 0 31.167 6 43.5 18s18.5 26.333 18.5 43v2c0 16.667 -6.16699 31 -18.5 43s-26.833 18 -43.5 18s-31.167 -6 -43.5 -18s-18.5 -26.333 -18.5 -43v-2c0 -16.667 6.16699 -31 18.5 -43s26.833 -18 43.5 -18zM300 293h186l-93 227z" />
    <glyph glyph-name="AE" unicode="&#xc6;" horiz-adv-x="1045" 
d="M9 0l377 700h601v-137h-350v-142h305v-137h-305v-147h355v-137h-508v157h-235l-83 -157h-157zM321 293h163v274h-18z" />
    <glyph glyph-name="Ccedilla" unicode="&#xc7;" horiz-adv-x="738" 
d="M373 -173l-126.996 53.001l80 118c-80.667 18.667 -146.334 60.167 -197.001 124.5s-76 139.5 -76 225.5v2c0 101.333 34.333 187 103 257s156 105 262 105c62 0 114.667 -9.16699 158 -27.5s82.666 -45.166 117.999 -80.499l-98 -113c-58 52.667 -117.667 79 -179 79
c-58 0 -106.333 -21.167 -145 -63.5s-58 -93.833 -58 -154.5v-2c0 -61.333 19.167 -113.333 57.5 -156s86.833 -64 145.5 -64c37.333 0 69.666 6.66699 96.999 20s56.333 34 87 62l98 -99c-36 -38.667 -74.333 -68.334 -115 -89.001s-89.334 -32.334 -146.001 -35.001z" />
    <glyph glyph-name="Egrave" unicode="&#xc8;" horiz-adv-x="670" 
d="M84 0v700h528v-137h-375v-142h330v-137h-330v-147h380v-137h-533zM317 755l-128 120l131 57l113 -177h-116z" />
    <glyph glyph-name="Eacute" unicode="&#xc9;" horiz-adv-x="670" 
d="M84 0v700h528v-137h-375v-142h330v-137h-330v-147h380v-137h-533zM264 755l113 177l131 -57l-128 -120h-116z" />
    <glyph glyph-name="Ecircumflex" unicode="&#xca;" horiz-adv-x="670" 
d="M84 0v700h528v-137h-375v-142h330v-137h-330v-147h380v-137h-533zM151 755l123 157h144l123 -157h-117l-79 66l-79 -66h-115z" />
    <glyph glyph-name="Edieresis" unicode="&#xcb;" horiz-adv-x="670" 
d="M84 0v700h528v-137h-375v-142h330v-137h-330v-147h380v-137h-533zM380 755v135h146v-135h-146zM166 755v135h146v-135h-146z" />
    <glyph glyph-name="Igrave" unicode="&#xcc;" horiz-adv-x="336" 
d="M91 0v700h154v-700h-154zM116 755l-128 120l131 57l113 -177h-116z" />
    <glyph glyph-name="Iacute" unicode="&#xcd;" horiz-adv-x="336" 
d="M91 0v700h154v-700h-154zM104 755l113 177l131 -57l-128 -120h-116z" />
    <glyph glyph-name="Icircumflex" unicode="&#xce;" horiz-adv-x="336" 
d="M91 0v700h154v-700h-154zM-27 755l123 157h144l123 -157h-117l-79 66l-79 -66h-115z" />
    <glyph glyph-name="Idieresis" unicode="&#xcf;" horiz-adv-x="336" 
d="M91 0v700h154v-700h-154zM202 755v135h146v-135h-146zM-12 755v135h146v-135h-146z" />
    <glyph glyph-name="Eth" unicode="&#xd0;" horiz-adv-x="812" 
d="M114 0l0.00195312 284h-75v136h75v280h273c109.333 0 198.666 -33.167 267.999 -99.5s104 -149.833 104 -250.5c0 -100 -34.833 -183.333 -104.5 -250s-158.834 -100 -267.501 -100h-273zM266.002 139h121c63.333 0 114.333 19.5 153 58.5s58 89.833 58 152.5
c0 62 -19.5 112.667 -58.5 152s-89.833 59 -152.5 59h-121v-141h152v-136h-152v-145z" />
    <glyph glyph-name="Ntilde" unicode="&#xd1;" horiz-adv-x="790" 
d="M84 0v700h142l328 -431v431h152v-700h-131l-339 445v-445h-152zM270 745l-81 25c12.667 46 28.334 80.5 47.001 103.5s44.334 34.5 77.001 34.5c22.667 0 50.834 -6.5 84.501 -19.5s55.5 -19.5 65.5 -19.5c14.667 0 25.834 3.83301 33.501 11.5s15.5 20.167 23.5 37.5
l81 -25c-12.667 -46 -28.334 -80.5 -47.001 -103.5s-44.334 -34.5 -77.001 -34.5c-22.667 0 -50.834 6.5 -84.501 19.5s-55.5 19.5 -65.5 19.5c-14.667 0 -25.834 -3.83301 -33.501 -11.5s-15.5 -20.167 -23.5 -37.5z" />
    <glyph glyph-name="Ograve" unicode="&#xd2;" horiz-adv-x="850" 
d="M424 -12c-106.667 0 -195.167 35 -265.5 105s-105.5 155.667 -105.5 257c0 100.667 35.5 186.167 106.5 256.5s159.833 105.5 266.5 105.5s195.167 -35 265.5 -105s105.5 -155.667 105.5 -257c0 -100.667 -35.5 -186.167 -106.5 -256.5s-159.833 -105.5 -266.5 -105.5z
M426 130c61.333 0 111.666 21.167 150.999 63.5s59 94.5 59 156.5c0 61.333 -20 113.333 -60 156s-90.667 64 -152 64s-111.666 -21.167 -150.999 -63.5s-59 -94.5 -59 -156.5c0 -61.333 20 -113.333 60 -156s90.667 -64 152 -64zM363 755l-128 120l131 57l113 -177h-116z
" />
    <glyph glyph-name="Oacute" unicode="&#xd3;" horiz-adv-x="850" 
d="M424 -12c-106.667 0 -195.167 35 -265.5 105s-105.5 155.667 -105.5 257c0 100.667 35.5 186.167 106.5 256.5s159.833 105.5 266.5 105.5s195.167 -35 265.5 -105s105.5 -155.667 105.5 -257c0 -100.667 -35.5 -186.167 -106.5 -256.5s-159.833 -105.5 -266.5 -105.5z
M426 130c61.333 0 111.666 21.167 150.999 63.5s59 94.5 59 156.5c0 61.333 -20 113.333 -60 156s-90.667 64 -152 64s-111.666 -21.167 -150.999 -63.5s-59 -94.5 -59 -156.5c0 -61.333 20 -113.333 60 -156s90.667 -64 152 -64zM371 755l113 177l131 -57l-128 -120h-116z
" />
    <glyph glyph-name="Ocircumflex" unicode="&#xd4;" horiz-adv-x="850" 
d="M424 -12c-106.667 0 -195.167 35 -265.5 105s-105.5 155.667 -105.5 257c0 100.667 35.5 186.167 106.5 256.5s159.833 105.5 266.5 105.5s195.167 -35 265.5 -105s105.5 -155.667 105.5 -257c0 -100.667 -35.5 -186.167 -106.5 -256.5s-159.833 -105.5 -266.5 -105.5z
M426 130c61.333 0 111.666 21.167 150.999 63.5s59 94.5 59 156.5c0 61.333 -20 113.333 -60 156s-90.667 64 -152 64s-111.666 -21.167 -150.999 -63.5s-59 -94.5 -59 -156.5c0 -61.333 20 -113.333 60 -156s90.667 -64 152 -64zM230 755l123 157h144l123 -157h-117l-79 66
l-79 -66h-115z" />
    <glyph glyph-name="Otilde" unicode="&#xd5;" horiz-adv-x="850" 
d="M424 -12c-106.667 0 -195.167 35 -265.5 105s-105.5 155.667 -105.5 257c0 100.667 35.5 186.167 106.5 256.5s159.833 105.5 266.5 105.5s195.167 -35 265.5 -105s105.5 -155.667 105.5 -257c0 -100.667 -35.5 -186.167 -106.5 -256.5s-159.833 -105.5 -266.5 -105.5z
M426 130c61.333 0 111.666 21.167 150.999 63.5s59 94.5 59 156.5c0 61.333 -20 113.333 -60 156s-90.667 64 -152 64s-111.666 -21.167 -150.999 -63.5s-59 -94.5 -59 -156.5c0 -61.333 20 -113.333 60 -156s90.667 -64 152 -64zM300 745l-81 25
c12.667 46 28.334 80.5 47.001 103.5s44.334 34.5 77.001 34.5c22.667 0 50.834 -6.5 84.501 -19.5s55.5 -19.5 65.5 -19.5c14.667 0 25.834 3.83301 33.501 11.5s15.5 20.167 23.5 37.5l81 -25c-12.667 -46 -28.334 -80.5 -47.001 -103.5s-44.334 -34.5 -77.001 -34.5
c-22.667 0 -50.834 6.5 -84.501 19.5s-55.5 19.5 -65.5 19.5c-14.667 0 -25.834 -3.83301 -33.501 -11.5s-15.5 -20.167 -23.5 -37.5z" />
    <glyph glyph-name="Odieresis" unicode="&#xd6;" horiz-adv-x="850" 
d="M424 -12c-106.667 0 -195.167 35 -265.5 105s-105.5 155.667 -105.5 257c0 100.667 35.5 186.167 106.5 256.5s159.833 105.5 266.5 105.5s195.167 -35 265.5 -105s105.5 -155.667 105.5 -257c0 -100.667 -35.5 -186.167 -106.5 -256.5s-159.833 -105.5 -266.5 -105.5z
M426 130c61.333 0 111.666 21.167 150.999 63.5s59 94.5 59 156.5c0 61.333 -20 113.333 -60 156s-90.667 64 -152 64s-111.666 -21.167 -150.999 -63.5s-59 -94.5 -59 -156.5c0 -61.333 20 -113.333 60 -156s90.667 -64 152 -64zM459 755v135h146v-135h-146zM245 755v135
h146v-135h-146z" />
    <glyph glyph-name="multiply" unicode="&#xd7;" horiz-adv-x="640" 
d="M582 187l-99 -98l-164 163l-163 -163l-99 98l164 164l-164 164l99 98l163 -163l164 163l99 -98l-164 -164z" />
    <glyph glyph-name="Oslash" unicode="&#xd8;" horiz-adv-x="850" 
d="M424 -12c-71.333 0 -135.666 16.667 -192.999 50l-39 -43h-147l98 113c-60 67.333 -90 148 -90 242c0 100.667 35.5 186.167 106.5 256.5s159.833 105.5 266.5 105.5c71.333 0 135.666 -16.667 192.999 -50l39 43h147l-98 -114c60 -66 90 -146.333 90 -241
c0 -100.667 -35.5 -186.167 -106.5 -256.5s-159.833 -105.5 -266.5 -105.5zM245 227l277.999 322c-30.667 16 -63.667 24 -99 24c-61.333 0 -112.166 -21.5 -152.499 -64.5s-60.5 -95.833 -60.5 -158.5c0 -44.667 11.333 -85.667 34 -123zM425.999 127
c61.333 0 112.167 21.5 152.5 64.5s60.5 95.833 60.5 158.5c0 44.667 -11.333 85.667 -34 123l-278 -322c30.667 -16 63.667 -24 99 -24z" />
    <glyph glyph-name="Ugrave" unicode="&#xd9;" horiz-adv-x="756" 
d="M376 -11c-95.333 0 -169.667 26.499 -223 79.499s-80 130.167 -80 231.5v400h154v-396c0 -56 13.167 -98.833 39.5 -128.5s63.5 -44.5 111.5 -44.5s85.167 14.333 111.5 43s39.5 70.334 39.5 125.001v401h154v-395c0 -104 -27.167 -182.667 -81.5 -236
s-129.5 -80 -225.5 -80zM330.999 749.999l-128 120l131 57l113 -177h-116z" />
    <glyph glyph-name="Uacute" unicode="&#xda;" horiz-adv-x="756" 
d="M376 -11c-95.333 0 -169.667 26.499 -223 79.499s-80 130.167 -80 231.5v400h154v-396c0 -56 13.167 -98.833 39.5 -128.5s63.5 -44.5 111.5 -44.5s85.167 14.333 111.5 43s39.5 70.334 39.5 125.001v401h154v-395c0 -104 -27.167 -182.667 -81.5 -236
s-129.5 -80 -225.5 -80zM308.999 749.999l113 177l131 -57l-128 -120h-116z" />
    <glyph glyph-name="Ucircumflex" unicode="&#xdb;" horiz-adv-x="756" 
d="M376 -11c-95.333 0 -169.667 26.499 -223 79.499s-80 130.167 -80 231.5v400h154v-396c0 -56 13.167 -98.833 39.5 -128.5s63.5 -44.5 111.5 -44.5s85.167 14.333 111.5 43s39.5 70.334 39.5 125.001v401h154v-395c0 -104 -27.167 -182.667 -81.5 -236
s-129.5 -80 -225.5 -80zM182.999 754.999l123 157h144l123 -157h-117l-79 66l-79 -66h-115z" />
    <glyph glyph-name="Udieresis" unicode="&#xdc;" horiz-adv-x="756" 
d="M376 -11c-95.333 0 -169.667 26.499 -223 79.499s-80 130.167 -80 231.5v400h154v-396c0 -56 13.167 -98.833 39.5 -128.5s63.5 -44.5 111.5 -44.5s85.167 14.333 111.5 43s39.5 70.334 39.5 125.001v401h154v-395c0 -104 -27.167 -182.667 -81.5 -236
s-129.5 -80 -225.5 -80zM411.999 754.999v135h146v-135h-146zM197.999 754.999v135h146v-135h-146z" />
    <glyph glyph-name="Yacute" unicode="&#xdd;" horiz-adv-x="716" 
d="M281 0v276l-269 424h180l167 -281l170 281h175l-269 -421v-279h-154zM299 750l113 177l131 -57l-128 -120h-116z" />
    <glyph glyph-name="Thorn" unicode="&#xde;" horiz-adv-x="673" 
d="M84 0v700h154v-102h132c82.667 0 148 -22.167 196 -66.5s72 -102.833 72 -175.5v-2c0 -78 -26.667 -138.5 -80 -181.5s-121 -64.5 -203 -64.5h-117v-108h-154zM238 245h122c37.333 0 67 10 89 30s33 45.333 33 76v2c0 34 -11 60.167 -33 78.5s-52.667 27.5 -92 27.5h-119
v-214z" />
    <glyph glyph-name="germandbls" unicode="&#xdf;" horiz-adv-x="620" 
d="M299 -2v114.002c85.333 4 128 35.333 128 94c0 26 -11.833 47.333 -35.5 64s-54.5 27.667 -92.5 33v100c58.667 37.333 88 79.333 88 126c0 24.667 -7.16699 44.167 -21.5 58.5s-33.833 21.5 -58.5 21.5c-26 0 -47.167 -9.16699 -63.5 -27.5s-24.5 -42.5 -24.5 -72.5
v-509h-151v503c0 73.333 22 130.666 66 171.999s104 62 180 62c69.333 0 123.833 -18.333 163.5 -55s59.5 -83.667 59.5 -141c0 -39.333 -8 -71.333 -24 -96s-38.333 -47 -67 -67c87.333 -38 131 -97.667 131 -179c0 -62.667 -23 -111.834 -69 -147.501
s-108.667 -53.5 -188 -53.5h-21z" />
    <glyph glyph-name="agrave" unicode="&#xe0;" horiz-adv-x="592" 
d="M220 -10c-52.667 0 -96.5 14.666 -131.5 43.999s-52.5 70 -52.5 122c0 56.667 19.5 99.334 58.5 128.001s91.5 43 157.5 43c44.667 0 88.334 -7.33301 131.001 -22v9c0 65.333 -38.333 98 -115 98c-46 0 -95.333 -9.66699 -148 -29l-38 116
c65.333 28.667 134.666 43 207.999 43c80.667 0 141 -20 181 -60c38.667 -38.667 58 -95.667 58 -171v-311h-147v58c-40.667 -45.333 -94.667 -68 -162 -68zM266 94.999c35.333 0 63.999 8.83301 85.999 26.5s33 40.167 33 67.5v27c-28.667 13.333 -61 20 -97 20
c-33.333 0 -59.166 -6.5 -77.499 -19.5s-27.5 -31.833 -27.5 -56.5c0 -20 7.66699 -35.833 23 -47.5s35.333 -17.5 60 -17.5zM253.999 594.999l-128 120l131 57l113 -177h-116z" />
    <glyph glyph-name="aacute" unicode="&#xe1;" horiz-adv-x="592" 
d="M220 -10c-52.667 0 -96.5 14.666 -131.5 43.999s-52.5 70 -52.5 122c0 56.667 19.5 99.334 58.5 128.001s91.5 43 157.5 43c44.667 0 88.334 -7.33301 131.001 -22v9c0 65.333 -38.333 98 -115 98c-46 0 -95.333 -9.66699 -148 -29l-38 116
c65.333 28.667 134.666 43 207.999 43c80.667 0 141 -20 181 -60c38.667 -38.667 58 -95.667 58 -171v-311h-147v58c-40.667 -45.333 -94.667 -68 -162 -68zM266 94.999c35.333 0 63.999 8.83301 85.999 26.5s33 40.167 33 67.5v27c-28.667 13.333 -61 20 -97 20
c-33.333 0 -59.166 -6.5 -77.499 -19.5s-27.5 -31.833 -27.5 -56.5c0 -20 7.66699 -35.833 23 -47.5s35.333 -17.5 60 -17.5zM226.999 594.999l113 177l131 -57l-128 -120h-116z" />
    <glyph glyph-name="acircumflex" unicode="&#xe2;" horiz-adv-x="592" 
d="M220 -10c-52.667 0 -96.5 14.666 -131.5 43.999s-52.5 70 -52.5 122c0 56.667 19.5 99.334 58.5 128.001s91.5 43 157.5 43c44.667 0 88.334 -7.33301 131.001 -22v9c0 65.333 -38.333 98 -115 98c-46 0 -95.333 -9.66699 -148 -29l-38 116
c65.333 28.667 134.666 43 207.999 43c80.667 0 141 -20 181 -60c38.667 -38.667 58 -95.667 58 -171v-311h-147v58c-40.667 -45.333 -94.667 -68 -162 -68zM266 94.999c35.333 0 63.999 8.83301 85.999 26.5s33 40.167 33 67.5v27c-28.667 13.333 -61 20 -97 20
c-33.333 0 -59.166 -6.5 -77.499 -19.5s-27.5 -31.833 -27.5 -56.5c0 -20 7.66699 -35.833 23 -47.5s35.333 -17.5 60 -17.5zM98.999 594.999l123 157h144l123 -157h-117l-79 66l-79 -66h-115z" />
    <glyph glyph-name="atilde" unicode="&#xe3;" horiz-adv-x="592" 
d="M220 -10c-52.667 0 -96.5 14.666 -131.5 43.999s-52.5 70 -52.5 122c0 56.667 19.5 99.334 58.5 128.001s91.5 43 157.5 43c44.667 0 88.334 -7.33301 131.001 -22v9c0 65.333 -38.333 98 -115 98c-46 0 -95.333 -9.66699 -148 -29l-38 116
c65.333 28.667 134.666 43 207.999 43c80.667 0 141 -20 181 -60c38.667 -38.667 58 -95.667 58 -171v-311h-147v58c-40.667 -45.333 -94.667 -68 -162 -68zM266 94.999c35.333 0 63.999 8.83301 85.999 26.5s33 40.167 33 67.5v27c-28.667 13.333 -61 20 -97 20
c-33.333 0 -59.166 -6.5 -77.499 -19.5s-27.5 -31.833 -27.5 -56.5c0 -20 7.66699 -35.833 23 -47.5s35.333 -17.5 60 -17.5zM170.999 584.999l-81 25c12.667 46 28.334 80.5 47.001 103.5s44.334 34.5 77.001 34.5c22.667 0 50.834 -6.5 84.501 -19.5
s55.5 -19.5 65.5 -19.5c14.667 0 25.834 3.83301 33.501 11.5s15.5 20.167 23.5 37.5l81 -25c-12.667 -46 -28.334 -80.5 -47.001 -103.5s-44.334 -34.5 -77.001 -34.5c-22.667 0 -50.834 6.5 -84.501 19.5s-55.5 19.5 -65.5 19.5c-14.667 0 -25.834 -3.83301 -33.501 -11.5
s-15.5 -20.167 -23.5 -37.5z" />
    <glyph glyph-name="adieresis" unicode="&#xe4;" horiz-adv-x="592" 
d="M220 -10c-52.667 0 -96.5 14.666 -131.5 43.999s-52.5 70 -52.5 122c0 56.667 19.5 99.334 58.5 128.001s91.5 43 157.5 43c44.667 0 88.334 -7.33301 131.001 -22v9c0 65.333 -38.333 98 -115 98c-46 0 -95.333 -9.66699 -148 -29l-38 116
c65.333 28.667 134.666 43 207.999 43c80.667 0 141 -20 181 -60c38.667 -38.667 58 -95.667 58 -171v-311h-147v58c-40.667 -45.333 -94.667 -68 -162 -68zM266 94.999c35.333 0 63.999 8.83301 85.999 26.5s33 40.167 33 67.5v27c-28.667 13.333 -61 20 -97 20
c-33.333 0 -59.166 -6.5 -77.499 -19.5s-27.5 -31.833 -27.5 -56.5c0 -20 7.66699 -35.833 23 -47.5s35.333 -17.5 60 -17.5zM327.999 594.999v135h146v-135h-146zM113.999 594.999v135h146v-135h-146z" />
    <glyph glyph-name="aring" unicode="&#xe5;" horiz-adv-x="592" 
d="M220 -10c-52.667 0 -96.5 14.666 -131.5 43.999s-52.5 70 -52.5 122c0 56.667 19.5 99.334 58.5 128.001s91.5 43 157.5 43c44.667 0 88.334 -7.33301 131.001 -22v9c0 65.333 -38.333 98 -115 98c-46 0 -95.333 -9.66699 -148 -29l-38 116
c65.333 28.667 134.666 43 207.999 43c80.667 0 141 -20 181 -60c38.667 -38.667 58 -95.667 58 -171v-311h-147v58c-40.667 -45.333 -94.667 -68 -162 -68zM266 94.999c35.333 0 63.999 8.83301 85.999 26.5s33 40.167 33 67.5v27c-28.667 13.333 -61 20 -97 20
c-33.333 0 -59.166 -6.5 -77.499 -19.5s-27.5 -31.833 -27.5 -56.5c0 -20 7.66699 -35.833 23 -47.5s35.333 -17.5 60 -17.5zM293.999 592.999c-32 0 -60.167 11.5 -84.5 34.5s-36.5 50.167 -36.5 81.5v2c0 31.333 12.167 58.5 36.5 81.5s52.5 34.5 84.5 34.5
s60.167 -11.5 84.5 -34.5s36.5 -50.167 36.5 -81.5v-2c0 -31.333 -12.167 -58.5 -36.5 -81.5s-52.5 -34.5 -84.5 -34.5zM293.999 647.999c16.667 0 31.167 6 43.5 18s18.5 26.333 18.5 43v2c0 16.667 -6.16699 31 -18.5 43s-26.833 18 -43.5 18s-31.167 -6 -43.5 -18
s-18.5 -26.333 -18.5 -43v-2c0 -16.667 6.16699 -31 18.5 -43s26.833 -18 43.5 -18z" />
    <glyph glyph-name="ae" unicode="&#xe6;" horiz-adv-x="951" 
d="M238 -10c-59.333 0 -107.833 14.667 -145.5 44s-56.5 70 -56.5 122c0 56.667 19.5 99.334 58.5 128.001s91.5 43 157.5 43c44.667 0 88.334 -7.33301 131.001 -22v9c0 65.333 -38.333 98 -115 98c-46 0 -95.333 -9.66699 -148 -29l-38 116
c65.333 28.667 134.666 43 207.999 43c84 0 144.667 -22.667 182 -68c46.667 48 105.667 72 177 72c55.333 0 103 -14 143 -42s69 -63.333 87 -106s27 -90.334 27 -143.001c0 -8 -0.666992 -21.333 -2 -40h-373c7.33301 -34 22.333 -60 45 -78s51.334 -27 86.001 -27
c47.333 0 90.666 18.333 129.999 55l87 -77c-54 -66.667 -127 -100 -219 -100c-83.333 0 -151.333 27 -204 81c-71.333 -52.667 -144 -79 -218 -79zM529 310l229.001 -0.00195312c-4.66699 34.667 -16.834 62.334 -36.501 83.001s-45.167 31 -76.5 31
c-30.667 0 -56.167 -10.167 -76.5 -30.5s-33.5 -48.166 -39.5 -83.499zM266.001 96.998c47.333 0 92.999 16.999 136.999 50.999c-10 23.333 -16.333 46.333 -19 69c-30 12.667 -62 19 -96 19c-33.333 0 -59.166 -6.5 -77.499 -19.5s-27.5 -31.833 -27.5 -56.5
c0 -19.333 8 -34.666 24 -45.999s35.667 -17 59 -17z" />
    <glyph glyph-name="ccedilla" unicode="&#xe7;" horiz-adv-x="571" 
d="M281 -173l-126.999 53.001l82 120c-58 17.333 -104.833 50.333 -140.5 99s-53.5 104 -53.5 166v2c0 77.333 26.667 143.166 80 197.499s120.333 81.5 201 81.5c89.333 0 160.666 -30 213.999 -90l-93 -100c-37.333 39.333 -78 59 -122 59
c-37.333 0 -68.333 -14.333 -93 -43s-37 -63 -37 -103v-2c0 -42 12.5 -77.167 37.5 -105.5s57.833 -42.5 98.5 -42.5c42 0 83 19 123 57l89 -90c-55.333 -60 -120 -92.333 -194 -97z" />
    <glyph glyph-name="egrave" unicode="&#xe8;" horiz-adv-x="613" 
d="M322 -12c-81.333 0 -148.334 25.832 -201.001 77.499s-79 118.834 -79 201.501c0 78 25 144 75 198s113.333 81 190 81c84.667 0 149.334 -28 194.001 -84s67 -125 67 -207c0 -8 -0.666992 -21.333 -2 -40h-373c7.33301 -34 22.333 -60 45 -78s51.334 -27 86.001 -27
c47.333 0 90.666 18.333 129.999 55l87 -77c-54 -66.667 -127 -100 -219 -100zM190.999 309.999l229.001 -0.00195312c-4.66699 34.667 -16.834 62.334 -36.501 83.001s-45.167 31 -76.5 31c-30.667 0 -56.167 -10.167 -76.5 -30.5s-33.5 -48.166 -39.5 -83.499z
M250 594.997l-128 120l131 57l113 -177h-116z" />
    <glyph glyph-name="eacute" unicode="&#xe9;" horiz-adv-x="613" 
d="M322 -12c-81.333 0 -148.334 25.832 -201.001 77.499s-79 118.834 -79 201.501c0 78 25 144 75 198s113.333 81 190 81c84.667 0 149.334 -28 194.001 -84s67 -125 67 -207c0 -8 -0.666992 -21.333 -2 -40h-373c7.33301 -34 22.333 -60 45 -78s51.334 -27 86.001 -27
c47.333 0 90.666 18.333 129.999 55l87 -77c-54 -66.667 -127 -100 -219 -100zM190.999 309.999l229.001 -0.00195312c-4.66699 34.667 -16.834 62.334 -36.501 83.001s-45.167 31 -76.5 31c-30.667 0 -56.167 -10.167 -76.5 -30.5s-33.5 -48.166 -39.5 -83.499z
M246 594.997l113 177l131 -57l-128 -120h-116z" />
    <glyph glyph-name="ecircumflex" unicode="&#xea;" horiz-adv-x="613" 
d="M322 -12c-81.333 0 -148.334 25.832 -201.001 77.499s-79 118.834 -79 201.501c0 78 25 144 75 198s113.333 81 190 81c84.667 0 149.334 -28 194.001 -84s67 -125 67 -207c0 -8 -0.666992 -21.333 -2 -40h-373c7.33301 -34 22.333 -60 45 -78s51.334 -27 86.001 -27
c47.333 0 90.666 18.333 129.999 55l87 -77c-54 -66.667 -127 -100 -219 -100zM190.999 309.999l229.001 -0.00195312c-4.66699 34.667 -16.834 62.334 -36.501 83.001s-45.167 31 -76.5 31c-30.667 0 -56.167 -10.167 -76.5 -30.5s-33.5 -48.166 -39.5 -83.499z
M111 594.997l123 157h144l123 -157h-117l-79 66l-79 -66h-115z" />
    <glyph glyph-name="edieresis" unicode="&#xeb;" horiz-adv-x="613" 
d="M322 -12c-81.333 0 -148.334 25.832 -201.001 77.499s-79 118.834 -79 201.501c0 78 25 144 75 198s113.333 81 190 81c84.667 0 149.334 -28 194.001 -84s67 -125 67 -207c0 -8 -0.666992 -21.333 -2 -40h-373c7.33301 -34 22.333 -60 45 -78s51.334 -27 86.001 -27
c47.333 0 90.666 18.333 129.999 55l87 -77c-54 -66.667 -127 -100 -219 -100zM190.999 309.999l229.001 -0.00195312c-4.66699 34.667 -16.834 62.334 -36.501 83.001s-45.167 31 -76.5 31c-30.667 0 -56.167 -10.167 -76.5 -30.5s-33.5 -48.166 -39.5 -83.499z
M340 594.997v135h146v-135h-146zM126 594.997v135h146v-135h-146z" />
    <glyph glyph-name="igrave" unicode="&#xec;" horiz-adv-x="302" 
d="M75 0v536h152v-536h-152zM101 595l-128 120l131 57l113 -177h-116z" />
    <glyph glyph-name="iacute" unicode="&#xed;" horiz-adv-x="302" 
d="M75 0v536h152v-536h-152zM85 595l113 177l131 -57l-128 -120h-116z" />
    <glyph glyph-name="icircumflex" unicode="&#xee;" horiz-adv-x="302" 
d="M75 0v536h152v-536h-152zM-44 595l123 157h144l123 -157h-117l-79 66l-79 -66h-115z" />
    <glyph glyph-name="idieresis" unicode="&#xef;" horiz-adv-x="302" 
d="M75 0v536h152v-536h-152zM185 595v135h146v-135h-146zM-29 595v135h146v-135h-146z" />
    <glyph glyph-name="eth" unicode="&#xf0;" horiz-adv-x="648" 
d="M319 -12c-79.333 0 -145.334 25.334 -198.001 76.001s-79 113.334 -79 188.001c0 69.333 21.333 125.666 64 168.999s97.667 65 165 65c42 0 83 -10.667 123 -32l-87 116l-114 -47l-56 75l115 46l-64 86h171l23 -33l100 41l55 -75l-102 -41l81 -115
c31.333 -44.667 53.833 -85.834 67.5 -123.501s20.5 -78.167 20.5 -121.5c0 -77.333 -25.667 -142.333 -77 -195s-120.666 -79 -207.999 -79zM323.999 116.001c40 0 72 12.499 96 37.499s36 56.833 36 95.5c0 36.667 -12.333 67.334 -37 92.001s-56.667 37 -96 37
c-40 0 -72.167 -12.167 -96.5 -36.5s-36.5 -55.833 -36.5 -94.5c0 -37.333 12.5 -68.5 37.5 -93.5s57.167 -37.5 96.5 -37.5z" />
    <glyph glyph-name="ntilde" unicode="&#xf1;" horiz-adv-x="623" 
d="M68 0v536h152v-76c44.667 57.333 97 86 157 86c57.333 0 102 -17.667 134 -53s48 -84 48 -146v-347h-152v299c0 35.333 -8 62.333 -24 81s-38.667 28 -68 28s-52.5 -9.33301 -69.5 -28s-25.5 -45.667 -25.5 -81v-299h-152zM191 585l-81 25
c12.667 46 28.334 80.5 47.001 103.5s44.334 34.5 77.001 34.5c22.667 0 50.834 -6.5 84.501 -19.5s55.5 -19.5 65.5 -19.5c14.667 0 25.834 3.83301 33.501 11.5s15.5 20.167 23.5 37.5l81 -25c-12.667 -46 -28.334 -80.5 -47.001 -103.5s-44.334 -34.5 -77.001 -34.5
c-22.667 0 -50.834 6.5 -84.501 19.5s-55.5 19.5 -65.5 19.5c-14.667 0 -25.834 -3.83301 -33.501 -11.5s-15.5 -20.167 -23.5 -37.5z" />
    <glyph glyph-name="ograve" unicode="&#xf2;" horiz-adv-x="664" 
d="M331 -12c-82.667 0 -151.5 26.833 -206.5 80.5s-82.5 119.834 -82.5 198.501c0 78 27.833 144 83.5 198s124.834 81 207.501 81s151.5 -26.833 206.5 -80.5s82.5 -119.834 82.5 -198.501c0 -78 -27.833 -144 -83.5 -198s-124.834 -81 -207.501 -81zM333 119
c42 0 75.667 14.167 101 42.5s38 63.5 38 105.5c0 40.667 -13.167 75.5 -39.5 104.5s-60.166 43.5 -101.499 43.5c-42 0 -75.667 -14.167 -101 -42.5s-38 -63.5 -38 -105.5c0 -40.667 13.167 -75.5 39.5 -104.5s60.166 -43.5 101.499 -43.5zM274 595l-128 120l131 57
l113 -177h-116z" />
    <glyph glyph-name="oacute" unicode="&#xf3;" horiz-adv-x="664" 
d="M331 -12c-82.667 0 -151.5 26.833 -206.5 80.5s-82.5 119.834 -82.5 198.501c0 78 27.833 144 83.5 198s124.834 81 207.501 81s151.5 -26.833 206.5 -80.5s82.5 -119.834 82.5 -198.501c0 -78 -27.833 -144 -83.5 -198s-124.834 -81 -207.501 -81zM333 119
c42 0 75.667 14.167 101 42.5s38 63.5 38 105.5c0 40.667 -13.167 75.5 -39.5 104.5s-60.166 43.5 -101.499 43.5c-42 0 -75.667 -14.167 -101 -42.5s-38 -63.5 -38 -105.5c0 -40.667 13.167 -75.5 39.5 -104.5s60.166 -43.5 101.499 -43.5zM274 595l113 177l131 -57
l-128 -120h-116z" />
    <glyph glyph-name="ocircumflex" unicode="&#xf4;" horiz-adv-x="664" 
d="M331 -12c-82.667 0 -151.5 26.833 -206.5 80.5s-82.5 119.834 -82.5 198.501c0 78 27.833 144 83.5 198s124.834 81 207.501 81s151.5 -26.833 206.5 -80.5s82.5 -119.834 82.5 -198.501c0 -78 -27.833 -144 -83.5 -198s-124.834 -81 -207.501 -81zM333 119
c42 0 75.667 14.167 101 42.5s38 63.5 38 105.5c0 40.667 -13.167 75.5 -39.5 104.5s-60.166 43.5 -101.499 43.5c-42 0 -75.667 -14.167 -101 -42.5s-38 -63.5 -38 -105.5c0 -40.667 13.167 -75.5 39.5 -104.5s60.166 -43.5 101.499 -43.5zM137 595l123 157h144l123 -157
h-117l-79 66l-79 -66h-115z" />
    <glyph glyph-name="otilde" unicode="&#xf5;" horiz-adv-x="664" 
d="M331 -12c-82.667 0 -151.5 26.833 -206.5 80.5s-82.5 119.834 -82.5 198.501c0 78 27.833 144 83.5 198s124.834 81 207.501 81s151.5 -26.833 206.5 -80.5s82.5 -119.834 82.5 -198.501c0 -78 -27.833 -144 -83.5 -198s-124.834 -81 -207.501 -81zM333 119
c42 0 75.667 14.167 101 42.5s38 63.5 38 105.5c0 40.667 -13.167 75.5 -39.5 104.5s-60.166 43.5 -101.499 43.5c-42 0 -75.667 -14.167 -101 -42.5s-38 -63.5 -38 -105.5c0 -40.667 13.167 -75.5 39.5 -104.5s60.166 -43.5 101.499 -43.5zM207 585l-81 25
c12.667 46 28.334 80.5 47.001 103.5s44.334 34.5 77.001 34.5c22.667 0 50.834 -6.5 84.501 -19.5s55.5 -19.5 65.5 -19.5c14.667 0 25.834 3.83301 33.501 11.5s15.5 20.167 23.5 37.5l81 -25c-12.667 -46 -28.334 -80.5 -47.001 -103.5s-44.334 -34.5 -77.001 -34.5
c-22.667 0 -50.834 6.5 -84.501 19.5s-55.5 19.5 -65.5 19.5c-14.667 0 -25.834 -3.83301 -33.501 -11.5s-15.5 -20.167 -23.5 -37.5z" />
    <glyph glyph-name="odieresis" unicode="&#xf6;" horiz-adv-x="664" 
d="M331 -12c-82.667 0 -151.5 26.833 -206.5 80.5s-82.5 119.834 -82.5 198.501c0 78 27.833 144 83.5 198s124.834 81 207.501 81s151.5 -26.833 206.5 -80.5s82.5 -119.834 82.5 -198.501c0 -78 -27.833 -144 -83.5 -198s-124.834 -81 -207.501 -81zM333 119
c42 0 75.667 14.167 101 42.5s38 63.5 38 105.5c0 40.667 -13.167 75.5 -39.5 104.5s-60.166 43.5 -101.499 43.5c-42 0 -75.667 -14.167 -101 -42.5s-38 -63.5 -38 -105.5c0 -40.667 13.167 -75.5 39.5 -104.5s60.166 -43.5 101.499 -43.5zM366 595v135h146v-135h-146z
M152 595v135h146v-135h-146z" />
    <glyph glyph-name="divide" unicode="&#xf7;" horiz-adv-x="640" 
d="M79 286v137h481v-137h-481zM242 500v151h149v-151h-149zM242 58v151h149v-151h-149z" />
    <glyph glyph-name="oslash" unicode="&#xf8;" horiz-adv-x="664" 
d="M331 -12c-51.333 0 -99.333 11.667 -144 35l-27 -28h-133l80 92c-43.333 50.667 -65 110.667 -65 180c0 78 27.833 144 83.5 198s124.834 81 207.501 81c52 0 99.667 -11.667 143 -35l28 30h133l-81 -93c44 -50 66 -110.333 66 -181c0 -78 -27.833 -144 -83.5 -198
s-124.834 -81 -207.501 -81zM204 197l184 210c-17.333 8 -36.333 12 -57 12c-43.333 0 -78 -14.5 -104 -43.5s-39 -65.167 -39 -108.5c0 -24 5.33301 -47.333 16 -70zM333 115c43.333 0 78 14.5 104 43.5s39 65.167 39 108.5c0 24 -5.33301 47.333 -16 70l-184 -211
c18 -7.33301 37 -11 57 -11z" />
    <glyph glyph-name="ugrave" unicode="&#xf9;" horiz-adv-x="623" 
d="M246 -10c-57.333 0 -102 17.667 -134 53s-48 84 -48 146v347h152v-299c0 -35.333 8 -62.333 24 -81s38.667 -28 68 -28s52.5 9.33301 69.5 28s25.5 45.667 25.5 81v299h152v-536h-152v76c-44.667 -57.333 -97 -86 -157 -86zM269 595l-128 120l131 57l113 -177h-116z" />
    <glyph glyph-name="uacute" unicode="&#xfa;" horiz-adv-x="623" 
d="M246 -10c-57.333 0 -102 17.667 -134 53s-48 84 -48 146v347h152v-299c0 -35.333 8 -62.333 24 -81s38.667 -28 68 -28s52.5 9.33301 69.5 28s25.5 45.667 25.5 81v299h152v-536h-152v76c-44.667 -57.333 -97 -86 -157 -86zM237 595l113 177l131 -57l-128 -120h-116z" />
    <glyph glyph-name="ucircumflex" unicode="&#xfb;" horiz-adv-x="623" 
d="M246 -10c-57.333 0 -102 17.667 -134 53s-48 84 -48 146v347h152v-299c0 -35.333 8 -62.333 24 -81s38.667 -28 68 -28s52.5 9.33301 69.5 28s25.5 45.667 25.5 81v299h152v-536h-152v76c-44.667 -57.333 -97 -86 -157 -86zM116 595l123 157h144l123 -157h-117l-79 66
l-79 -66h-115z" />
    <glyph glyph-name="udieresis" unicode="&#xfc;" horiz-adv-x="623" 
d="M246 -10c-57.333 0 -102 17.667 -134 53s-48 84 -48 146v347h152v-299c0 -35.333 8 -62.333 24 -81s38.667 -28 68 -28s52.5 9.33301 69.5 28s25.5 45.667 25.5 81v299h152v-536h-152v76c-44.667 -57.333 -97 -86 -157 -86zM345 595v135h146v-135h-146zM131 595v135h146
v-135h-146z" />
    <glyph glyph-name="yacute" unicode="&#xfd;" horiz-adv-x="600" 
d="M196 -163c-48 0 -93 12.332 -135 36.999l51 110c23.333 -14 45 -21 65 -21c24 0 41.667 11.667 53 35l-210 538h161l122 -365l117 365h158l-206 -549c-20.667 -55.333 -44 -94.166 -70 -116.499s-61.333 -33.5 -106 -33.5zM229 594.999l113 177l131 -57l-128 -120h-116z
" />
    <glyph glyph-name="thorn" unicode="&#xfe;" horiz-adv-x="675" 
d="M68 -160v890h152v-271c42.667 58 98.334 87 167.001 87c66.667 0 124 -24.833 172 -74.5s72 -117.167 72 -202.5v-2c0 -85.333 -23.833 -152.833 -71.5 -202.5s-105.167 -74.5 -172.5 -74.5c-66.667 0 -122.334 26.667 -167.001 80v-230h-152zM348 119
c36.667 0 67.667 13.667 93 41s38 63 38 107v2c0 43.333 -12.667 78.833 -38 106.5s-56.333 41.5 -93 41.5s-67.5 -13.833 -92.5 -41.5s-37.5 -63.167 -37.5 -106.5v-2c0 -43.333 12.5 -78.833 37.5 -106.5s55.833 -41.5 92.5 -41.5z" />
    <glyph glyph-name="ydieresis" unicode="&#xff;" horiz-adv-x="600" 
d="M196 -163c-48 0 -93 12.332 -135 36.999l51 110c23.333 -14 45 -21 65 -21c24 0 41.667 11.667 53 35l-210 538h161l122 -365l117 365h158l-206 -549c-20.667 -55.333 -44 -94.166 -70 -116.499s-61.333 -33.5 -106 -33.5zM334 594.999v135h146v-135h-146zM120 594.999
v135h146v-135h-146z" />
    <glyph glyph-name="dotlessi" unicode="&#x131;" horiz-adv-x="302" 
d="M75 0v536h152v-536h-152z" />
    <glyph glyph-name="Lslash" unicode="&#x141;" horiz-adv-x="649" 
d="M114 0v262l-75 -22v143l75 22v295h152v-249l192 57v-143l-192 -57v-168h351v-140h-503z" />
    <glyph glyph-name="lslash" unicode="&#x142;" horiz-adv-x="362" 
d="M106 0v280l-76 -23v143l76 23v307h150v-263l76 23v-143l-76 -23v-324h-150z" />
    <glyph glyph-name="OE" unicode="&#x152;" horiz-adv-x="1075" 
d="M425 0c-109.333 0 -198.668 33.167 -268.001 99.5s-104 149.833 -104 250.5c0 100 34.833 183.333 104.5 250s158.834 100 267.501 100h592v-137h-350v-142h305v-137h-305v-147h355v-137h-597zM424.998 139h89v422h-89c-63.333 0 -114.333 -19.5 -153 -58.5
s-58 -89.833 -58 -152.5c0 -62 19.5 -112.667 58.5 -152s89.833 -59 152.5 -59z" />
    <glyph glyph-name="oe" unicode="&#x153;" horiz-adv-x="1033" 
d="M322 -12c-76.667 0 -142.502 27.1689 -197.502 81.502s-82.5 120.166 -82.5 197.499s27.833 143.166 83.5 197.499s123.167 81.5 202.5 81.5c82.667 0 150 -29.667 202 -89c50.667 59.333 116.334 89 197.001 89c84.667 0 149.334 -28 194.001 -84s67 -125 67 -207
c0 -8 -0.666992 -21.333 -2 -40h-373c7.33301 -34 22.333 -60 45 -78s51.334 -27 86.001 -27c47.333 0 90.666 18.333 129.999 55l87 -77c-54 -66.667 -127 -100 -219 -100c-88.667 0 -160 30.333 -214 91c-53.333 -60.667 -122 -91 -206 -91zM610.998 310.002
l229.001 -0.00195312c-4.66699 34.667 -16.834 62.334 -36.501 83.001s-45.167 31 -76.5 31c-30.667 0 -56.167 -10.167 -76.5 -30.5s-33.5 -48.166 -39.5 -83.499zM327.999 119c40.667 0 73.167 14.167 97.5 42.5s36.5 63.5 36.5 105.5c0 40.667 -12.833 75.5 -38.5 104.5
s-58.167 43.5 -97.5 43.5c-40.667 0 -73.167 -14.333 -97.5 -43s-36.5 -63.667 -36.5 -105c0 -40.667 12.833 -75.5 38.5 -104.5s58.167 -43.5 97.5 -43.5z" />
    <glyph glyph-name="Scaron" unicode="&#x160;" horiz-adv-x="640" 
d="M333 -10c-114.667 0 -213.667 37.334 -297 112.001l91 109c68.667 -56.667 138.334 -85 209.001 -85c31.333 0 56 6 74 18s27 28.667 27 50c0 20 -9.33301 36.167 -28 48.5s-56.334 25.833 -113.001 40.5c-40 10 -72.333 19.833 -97 29.5s-48.167 22.5 -70.5 38.5
s-38.666 36.167 -48.999 60.5s-15.5 53.5 -15.5 87.5c0 63.333 22.833 114.333 68.5 153s104.5 58 176.5 58c99.333 0 186 -29.667 260 -89l-80 -116c-66 46 -126.667 69 -182 69c-28.667 0 -50.834 -5.83301 -66.501 -17.5s-23.5 -26.834 -23.5 -45.501
c0 -22.667 9.66699 -39.667 29 -51s60 -25 122 -41c76 -20 132 -45.667 168 -77s54 -76.333 54 -135c0 -68 -23.5 -121.167 -70.5 -159.5s-109.167 -57.5 -186.5 -57.5zM245 755.001l-123 157h117l79 -66l79 66h115l-123 -157h-144z" />
    <glyph glyph-name="scaron" unicode="&#x161;" horiz-adv-x="502" 
d="M256 -10c-84.667 0 -161.331 27.001 -229.998 81.001l65 100c58.667 -42.667 115 -64 169 -64c42.667 0 64 14 64 42c0 3.33301 -0.5 6.66602 -1.5 9.99902s-2.83301 6.33301 -5.5 9s-5.5 5.16699 -8.5 7.5s-7 4.66602 -12 6.99902l-13 6
c-3.66699 1.66699 -8.83398 3.66699 -15.501 6s-12.334 4.16602 -17.001 5.49902l-19 5.5l-19 5.5c-22.667 6.66699 -41.834 13.5 -57.501 20.5s-32.167 16.667 -49.5 29s-30.5 28 -39.5 47s-13.5 41.167 -13.5 66.5c0 52.667 18.667 94.167 56 124.5s84 45.5 140 45.5
c72 0 138.667 -20.667 200 -62l-58 -105c-56.667 33.333 -105 50 -145 50c-37.333 0 -56 -13 -56 -39c0 -18 30.667 -37.333 92 -58c7.33301 -2.66699 13 -4.66699 17 -6c18 -6 33.333 -11.667 46 -17s27 -12.666 43 -21.999s28.833 -19.166 38.5 -29.499
s17.834 -23.5 24.501 -39.5s10 -33.667 10 -53c0 -57.333 -18.833 -100.5 -56.5 -129.5s-87.167 -43.5 -148.5 -43.5zM183.003 595.001l-123 157h117l79 -66l79 66h115l-123 -157h-144z" />
    <glyph glyph-name="Ydieresis" unicode="&#x178;" horiz-adv-x="716" 
d="M281 0v276l-269 424h180l167 -281l170 281h175l-269 -421v-279h-154zM392 755v135h146v-135h-146zM178 755v135h146v-135h-146z" />
    <glyph glyph-name="Zcaron" unicode="&#x17d;" horiz-adv-x="708" 
d="M63 0v117l385 448h-373v135h571v-117l-385 -448h385v-135h-583zM285 755l-123 157h117l79 -66l79 66h115l-123 -157h-144z" />
    <glyph glyph-name="zcaron" unicode="&#x17e;" horiz-adv-x="563" 
d="M50 0v107l277 306h-268v123h457v-107l-278 -306h278v-123h-466zM217 595l-123 157h117l79 -66l79 66h115l-123 -157h-144z" />
    <glyph glyph-name="florin" unicode="&#x192;" horiz-adv-x="536" 
d="M100 -5c-24 0 -43.6631 1.66699 -58.9961 5v123c13.333 -2 25.666 -3 36.999 -3c21.333 0 37.333 4.66699 48 14s18 25 22 47l28 163h-67v125h89l14 74c10 54 29.667 94.5 59 121.5s72.666 40.5 129.999 40.5c40.667 0 73.667 -4 99 -12v-126
c-26.667 6.66699 -49.334 10 -68.001 10c-42 0 -67 -22.667 -75 -68l-7 -40h115v-125h-137l-33 -187c-10.667 -58 -31.334 -99.5 -62.001 -124.5s-75 -37.5 -133 -37.5z" />
    <glyph glyph-name="circumflex" unicode="&#x2c6;" 
d="M55 595l123 157h144l123 -157h-117l-79 66l-79 -66h-115z" />
    <glyph glyph-name="caron" unicode="&#x2c7;" 
d="M178 595l-123 157h117l79 -66l79 66h115l-123 -157h-144z" />
    <glyph glyph-name="breve" unicode="&#x2d8;" 
d="M250 593c-53.333 0 -96.8311 14 -130.498 42s-52.834 67 -57.501 117h102c13.333 -40 42 -60 86 -60s72.667 20 86 60h102c-4.66699 -50 -23.834 -89 -57.501 -117s-77.167 -42 -130.5 -42z" />
    <glyph glyph-name="dotaccent" unicode="&#x2d9;" 
d="M175 595v135h150v-135h-150z" />
    <glyph glyph-name="ring" unicode="&#x2da;" 
d="M250 593c-32 0 -60.167 11.5 -84.5 34.5s-36.5 50.167 -36.5 81.5v2c0 31.333 12.167 58.5 36.5 81.5s52.5 34.5 84.5 34.5s60.167 -11.5 84.5 -34.5s36.5 -50.167 36.5 -81.5v-2c0 -31.333 -12.167 -58.5 -36.5 -81.5s-52.5 -34.5 -84.5 -34.5zM250 648
c16.667 0 31.167 6 43.5 18s18.5 26.333 18.5 43v2c0 16.667 -6.16699 31 -18.5 43s-26.833 18 -43.5 18s-31.167 -6 -43.5 -18s-18.5 -26.333 -18.5 -43v-2c0 -16.667 6.16699 -31 18.5 -43s26.833 -18 43.5 -18z" />
    <glyph glyph-name="ogonek" unicode="&#x2db;" 
d="M371 -164c-63.333 -5.33301 -112.5 1.49902 -147.5 20.499s-52.5 48.5 -52.5 88.5c0 20.667 5.33301 42.334 16 65.001h104c-4 -14 -6 -27 -6 -39c0 -42 28.667 -64.667 86 -68v-67z" />
    <glyph glyph-name="tilde" unicode="&#x2dc;" 
d="M125 585l-81 25c12.667 46 28.334 80.5 47.001 103.5s44.334 34.5 77.001 34.5c22.667 0 50.834 -6.5 84.501 -19.5s55.5 -19.5 65.5 -19.5c14.667 0 25.834 3.83301 33.501 11.5s15.5 20.167 23.5 37.5l81 -25c-12.667 -46 -28.334 -80.5 -47.001 -103.5
s-44.334 -34.5 -77.001 -34.5c-22.667 0 -50.834 6.5 -84.501 19.5s-55.5 19.5 -65.5 19.5c-14.667 0 -25.834 -3.83301 -33.501 -11.5s-15.5 -20.167 -23.5 -37.5z" />
    <glyph glyph-name="hungarumlaut" unicode="&#x2dd;" 
d="M231 595l113 177l128 -57l-130 -120h-111zM36 595l111 177l128 -57l-128 -120h-111z" />
    <glyph glyph-name="Omega" unicode="&#x3a9;" horiz-adv-x="784" 
d="M722 0l-289.001 -0.00390625v208c44 9.33301 77.333 30.833 100 64.5s34 73.834 34 120.501c0 52.667 -15.667 97.167 -47 133.5s-73 54.5 -125 54.5c-53.333 0 -96 -18.5 -128 -55.5s-48 -82.5 -48 -136.5c0 -46.667 11.167 -86.167 33.5 -118.5
s55.166 -53.166 98.499 -62.499v-208h-289v126h174v27c-55.333 15.333 -98.166 46.5 -128.499 93.5s-45.5 100.167 -45.5 159.5c0 92.667 32 166.834 96 222.501s143 83.5 237 83.5c92.667 0 170.334 -27.5 233.001 -82.5s94 -128.833 94 -221.5
c0 -60 -15 -114.167 -45 -162.5s-73 -79.166 -129 -92.499v-27h174v-126z" />
    <glyph glyph-name="pi" unicode="&#x3c0;" 
d="M0 0v700h500v-700h-500zM81 49h339l-170 255zM49 96l171 254l-171 254v-508zM450 96v508l-171 -254zM250 395l170 255h-339z" />
    <glyph glyph-name="afii10023" unicode="&#x401;" horiz-adv-x="670" 
d="M84 0v700h528v-137h-375v-142h330v-137h-330v-147h380v-137h-533zM379 755v135h146v-135h-146zM165 755v135h146v-135h-146z" />
    <glyph glyph-name="afii10051" unicode="&#x402;" horiz-adv-x="868" 
d="M457 6l27.002 137.001c17.333 -2.66699 32 -4 44 -4c78.667 0 118 29 118 87c0 56.667 -40 85 -120 85c-60 0 -110.333 -18.667 -151 -56v-255h-153v564h-190v136h593v-136h-250v-161c58.667 38 122 57 190 57c71.333 0 129.166 -20.5 173.499 -61.5
s66.5 -97.5 66.5 -169.5c0 -78.667 -21.833 -138.334 -65.5 -179.001s-101.834 -61 -174.501 -61c-43.333 0 -79.333 5.66699 -108 17z" />
    <glyph glyph-name="afii10052" unicode="&#x403;" horiz-adv-x="598" 
d="M238 561v-561h-154v700h489v-139h-335zM217 755l113 177l131 -57l-128 -120h-116z" />
    <glyph glyph-name="afii10053" unicode="&#x404;" horiz-adv-x="733" 
d="M505 417v-128h-287c12 -48 35.833 -87.167 71.5 -117.5s78.167 -45.5 127.5 -45.5c38.667 0 72.667 6.83301 102 20.5s59.333 34.5 90 62.5l95 -103c-37.333 -40 -79 -69.667 -125 -89s-101.667 -29 -167 -29c-102.667 0 -188.167 34.833 -256.5 104.5
s-102.5 155.5 -102.5 257.5c0 101.333 34.333 187 103 257s156 105 262 105c102.667 0 191.667 -35.333 267 -106l-85 -106c-55.333 49.333 -116.333 74 -183 74c-47.333 0 -89 -14.5 -125 -43.5s-60.333 -66.833 -73 -113.5h286z" />
    <glyph glyph-name="afii10054" unicode="&#x405;" horiz-adv-x="640" 
d="M333 -10c-114.667 0 -213.667 37.334 -297 112.001l91 109c68.667 -56.667 138.334 -85 209.001 -85c31.333 0 56 6 74 18s27 28.667 27 50c0 20 -9.33301 36.167 -28 48.5s-56.334 25.833 -113.001 40.5c-40 10 -72.333 19.833 -97 29.5s-48.167 22.5 -70.5 38.5
s-38.666 36.167 -48.999 60.5s-15.5 53.5 -15.5 87.5c0 63.333 22.833 114.333 68.5 153s104.5 58 176.5 58c99.333 0 186 -29.667 260 -89l-80 -116c-66 46 -126.667 69 -182 69c-28.667 0 -50.834 -5.83301 -66.501 -17.5s-23.5 -26.834 -23.5 -45.501
c0 -22.667 9.66699 -39.667 29 -51s60 -25 122 -41c76 -20 132 -45.667 168 -77s54 -76.333 54 -135c0 -68 -23.5 -121.167 -70.5 -159.5s-109.167 -57.5 -186.5 -57.5z" />
    <glyph glyph-name="afii10055" unicode="&#x406;" horiz-adv-x="336" 
d="M91 0v700h154v-700h-154z" />
    <glyph glyph-name="afii10056" unicode="&#x407;" horiz-adv-x="336" 
d="M91 0v700h154v-700h-154zM202 755v135h146v-135h-146zM-12 755v135h146v-135h-146z" />
    <glyph glyph-name="afii10057" unicode="&#x408;" horiz-adv-x="564" 
d="M243 -10c-94 0 -170.334 35 -229.001 105l97 108c42.667 -46.667 85.334 -70 128.001 -70c62.667 0 94 38.667 94 116v451h158v-458c0 -80.667 -22 -143 -66 -187c-43.333 -43.333 -104 -65 -182 -65z" />
    <glyph glyph-name="afii10058" unicode="&#x409;" horiz-adv-x="1116" 
d="M523 0l0.00195312 560.999h-202v-53c0 -133.333 -8 -237.666 -24 -312.999s-40 -128.166 -72 -158.499s-75.667 -45.5 -131 -45.5c-31.333 0 -58.333 3 -81 9l10 127c9.33301 -1.33301 17.333 -2 24 -2c22.667 0 41.167 4.83301 55.5 14.5s27.666 29.167 39.999 58.5
s21.166 73.166 26.499 131.499s8 133.5 8 225.5v145h500v-238h149c80 0 142.667 -20.5 188 -61.5s68 -96.167 68 -165.5c0 -72 -23.833 -129.167 -71.5 -171.5s-112.5 -63.5 -194.5 -63.5h-293zM813.002 329.999h-136v-191h137c76.667 0 115 32.667 115 98
c0 62 -38.667 93 -116 93z" />
    <glyph glyph-name="afii10059" unicode="&#x40a;" horiz-adv-x="1115" 
d="M820 0l-298 0.000976562v311h-284v-311h-154v700h154v-261h284v261h154v-261h159c78 0 138.5 -19.5 181.5 -58.5s64.5 -91.833 64.5 -158.5c0 -70.667 -23 -125.334 -69 -164.001s-110 -58 -192 -58zM819 311.001h-143v-172h144c71.333 0 107 29.667 107 89
c0 55.333 -36 83 -108 83z" />
    <glyph glyph-name="afii10060" unicode="&#x40b;" horiz-adv-x="868" 
d="M375 255l0.00195312 -255h-153v564h-190v136h593v-136h-250v-161c58.667 38 122 57 190 57c71.333 0 129.166 -19.333 173.499 -58s66.5 -93 66.5 -163v-239h-153v174c0 44 -10 77.833 -30 101.5s-49.667 35.5 -89 35.5c-64.667 0 -117.334 -18.667 -158.001 -56z" />
    <glyph glyph-name="afii10061" unicode="&#x40c;" horiz-adv-x="730" 
d="M84 0v700h154v-306l284 306h186l-285 -297l298 -403h-185l-217 298l-81 -84v-214h-154zM303 755l113 177l131 -57l-128 -120h-116z" />
    <glyph glyph-name="afii10062" unicode="&#x40e;" horiz-adv-x="734" 
d="M380 330l169 370h167l-269 -541c-30 -60 -63.167 -103.333 -99.5 -130s-79.5 -40 -129.5 -40c-52.667 0 -103 13.667 -151 41l60 113c25.333 -15.333 53 -23 83 -23c34.667 0 64 18.667 88 56l-280 524h172zM378 753c-46 0 -83.8311 13.333 -113.498 40
s-47.834 64 -54.501 112l89 16c14 -44.667 40.333 -67 79 -67s65 22.333 79 67l89 -16c-6.66699 -48 -24.834 -85.333 -54.501 -112s-67.5 -40 -113.5 -40z" />
    <glyph glyph-name="afii10145" unicode="&#x40f;" horiz-adv-x="752" 
d="M84 0v700h153v-560h278v560h153v-700h-218v-146h-149v146h-217z" />
    <glyph glyph-name="afii10017" unicode="&#x410;" horiz-adv-x="790" 
d="M24 0l300 705h142l300 -705h-161l-64 157h-296l-64 -157h-157zM300 293h186l-93 227z" />
    <glyph glyph-name="afii10018" unicode="&#x411;" horiz-adv-x="712" 
d="M238 561v-121.999h185c78 0 138.5 -19.5 181.5 -58.5s64.5 -91.833 64.5 -158.5c0 -70.667 -23 -125.334 -69 -164.001s-110 -58 -192 -58h-324v700h537v-139h-383zM407 311.001h-169v-172h170c71.333 0 107 29.667 107 89c0 55.333 -36 83 -108 83z" />
    <glyph glyph-name="afii10019" unicode="&#x412;" horiz-adv-x="722" 
d="M84 0v700.001h325c80.667 0 141.667 -20.667 183 -62c32 -32 48 -72.333 48 -121c0 -66 -30.667 -116.333 -92 -151c43.333 -16.667 76 -38.5 98 -65.5s33 -63.167 33 -108.5c0 -62.667 -23.333 -110.334 -70 -143.001s-110.667 -49 -192 -49h-333zM234 417.001
l142 0.000976562c74 0 111 25.333 111 76c0 23.333 -8.66699 41.166 -26 53.499s-42.333 18.5 -75 18.5h-152v-148zM234 135.002h183c72.667 0 109 26 109 78c0 50.667 -38 76 -114 76h-178v-154z" />
    <glyph glyph-name="afii10020" unicode="&#x413;" horiz-adv-x="598" 
d="M238 561v-561h-154v700h489v-139h-335z" />
    <glyph glyph-name="afii10021" unicode="&#x414;" horiz-adv-x="770" 
d="M10 -146v284.999h66c27.333 63.333 47 130.333 59 201s18 163.334 18 278.001v82h509v-561h84l-20 -285h-129v146h-438l-10 -146h-139zM508 560.999h-207v-71c0 -132 -21 -249 -63 -351h270v422z" />
    <glyph glyph-name="afii10022" unicode="&#x415;" horiz-adv-x="670" 
d="M84 0v700h528v-137h-375v-142h330v-137h-330v-147h380v-137h-533z" />
    <glyph glyph-name="afii10024" unicode="&#x416;" horiz-adv-x="1119" 
d="M636 0h-153v186l-93 100l-197 -286h-184l277 397l-267 303h183l281 -327v327h153v-327l281 327h183l-267 -303l277 -397h-184l-198 286l-92 -100v-186z" />
    <glyph glyph-name="afii10025" unicode="&#x417;" horiz-adv-x="654" 
d="M333 712c74.667 0 135.498 -17.666 182.498 -52.999s70.5 -80.333 70.5 -135c0 -74.667 -37.667 -128.334 -113 -161.001c87.333 -28 131 -83 131 -165c0 -61.333 -24.167 -111.666 -72.5 -150.999s-112.833 -59 -193.5 -59c-71.333 0 -131.166 9.66699 -179.499 29
s-92.166 48.666 -131.499 87.999l82 107c60.667 -59.333 135 -89 223 -89c34 0 62.167 7.5 84.5 22.5s33.5 35.5 33.5 61.5c0 28 -12.5 48.667 -37.5 62s-58.833 20 -101.5 20h-81v128h79c83.333 0 125 27 125 81c0 24 -10.333 43 -31 57s-48 21 -82 21
c-76 0 -139 -25.667 -189 -77l-81 98c73.333 76.667 167.333 115 282 115z" />
    <glyph glyph-name="afii10026" unicode="&#x418;" horiz-adv-x="771" 
d="M687 700v-700h-152v459l-306 -459h-145v700h152v-459l308 459h143z" />
    <glyph glyph-name="afii10027" unicode="&#x419;" horiz-adv-x="771" 
d="M687 700v-700h-152v459l-306 -459h-145v700h152v-459l308 459h143zM388 753c-46 0 -83.8311 13.333 -113.498 40s-47.834 64 -54.501 112l89 16c14 -44.667 40.333 -67 79 -67s65 22.333 79 67l89 -16c-6.66699 -48 -24.834 -85.333 -54.501 -112s-67.5 -40 -113.5 -40z
" />
    <glyph glyph-name="afii10028" unicode="&#x41a;" horiz-adv-x="730" 
d="M84 0v700h154v-306l284 306h186l-285 -297l298 -403h-185l-217 298l-81 -84v-214h-154z" />
    <glyph glyph-name="afii10029" unicode="&#x41b;" horiz-adv-x="761" 
d="M177 700l500.001 0.000976562v-700h-154v561h-202v-53c0 -136.667 -8.16699 -242.667 -24.5 -318s-40.166 -127.333 -71.499 -156s-75 -43 -131 -43c-31.333 0 -58.333 3 -81 9l10 127c9.33301 -1.33301 17.333 -2 24 -2c22.667 0 41.167 4.83301 55.5 14.5
s27.666 29.167 39.999 58.5s21.166 73.166 26.499 131.499s8 133.5 8 225.5v145z" />
    <glyph glyph-name="afii10030" unicode="&#x41c;" horiz-adv-x="868" 
d="M84 0v700h166l184 -296l184 296h166v-700h-153v457l-197 -299h-4l-195 296v-454h-151z" />
    <glyph glyph-name="afii10031" unicode="&#x41d;" horiz-adv-x="760" 
d="M84 0v700h154v-277h284v277h154v-700h-154v281h-284v-281h-154z" />
    <glyph glyph-name="afii10032" unicode="&#x41e;" horiz-adv-x="850" 
d="M424 -12c-106.667 0 -195.167 35 -265.5 105s-105.5 155.667 -105.5 257c0 100.667 35.5 186.167 106.5 256.5s159.833 105.5 266.5 105.5s195.167 -35 265.5 -105s105.5 -155.667 105.5 -257c0 -100.667 -35.5 -186.167 -106.5 -256.5s-159.833 -105.5 -266.5 -105.5z
M426 130c61.333 0 111.666 21.167 150.999 63.5s59 94.5 59 156.5c0 61.333 -20 113.333 -60 156s-90.667 64 -152 64s-111.666 -21.167 -150.999 -63.5s-59 -94.5 -59 -156.5c0 -61.333 20 -113.333 60 -156s90.667 -64 152 -64z" />
    <glyph glyph-name="afii10033" unicode="&#x41f;" horiz-adv-x="752" 
d="M84 0v700h584v-700h-154v561h-276v-561h-154z" />
    <glyph glyph-name="afii10034" unicode="&#x420;" horiz-adv-x="668" 
d="M84 0v700h286c82.667 0 148 -22.333 196 -67s72 -103.667 72 -177c0 -78 -26.667 -138.5 -80 -181.5s-121 -64.5 -203 -64.5h-117v-210h-154zM238 347h122c38 0 67.833 10 89.5 30s32.5 46 32.5 78c0 34 -11 60.167 -33 78.5s-52.667 27.5 -92 27.5h-119v-214z" />
    <glyph glyph-name="afii10035" unicode="&#x421;" horiz-adv-x="738" 
d="M412 -12c-102.667 0 -188.166 34.835 -256.499 104.502s-102.5 155.5 -102.5 257.5c0 101.333 34.333 187 103 257s156 105 262 105c60.667 0 111.667 -9.83301 153 -29.5s80.666 -47.834 117.999 -84.501l-92 -106c-30 27.333 -58.167 47.166 -84.5 59.499
s-58.166 18.5 -95.499 18.5c-58.667 0 -107.167 -21.167 -145.5 -63.5s-57.5 -94.5 -57.5 -156.5c0 -61.333 19.167 -113.333 57.5 -156s86.833 -64 145.5 -64c37.333 0 69.666 6.66699 96.999 20s56.333 34 87 62l98 -105c-38 -40.667 -79.167 -70.667 -123.5 -90
s-98.833 -29 -163.5 -29z" />
    <glyph glyph-name="afii10036" unicode="&#x422;" horiz-adv-x="648" 
d="M247 0v558h-213v142h580v-142h-213v-558h-154z" />
    <glyph glyph-name="afii10037" unicode="&#x423;" horiz-adv-x="734" 
d="M380 330l169 370h167l-269 -541c-30 -60 -63.167 -103.333 -99.5 -130s-79.5 -40 -129.5 -40c-52.667 0 -103 13.667 -151 41l60 113c25.333 -15.333 53 -23 83 -23c34.667 0 64 18.667 88 56l-280 524h172z" />
    <glyph glyph-name="afii10038" unicode="&#x424;" horiz-adv-x="932" 
d="M543 526v-341c56.667 0 102.167 15.5 136.5 46.5s51.5 72.5 51.5 124.5c0 51.333 -17.167 92.5 -51.5 123.5s-79.833 46.5 -136.5 46.5zM543 -28h-154v76c-106 0 -190.333 29.167 -253 87.5s-94 132.833 -94 223.5c0 89.333 31.333 162.333 94 219s147 85 253 85v64h154
v-64c105.333 0 189.5 -28.5 252.5 -85.5s94.5 -130.167 94.5 -219.5c0 -90 -31.333 -164.167 -94 -222.5s-147 -87.5 -253 -87.5v-76zM389 185v341c-56.667 0 -102.334 -15.5 -137.001 -46.5s-52 -72.167 -52 -123.5c0 -52 17.333 -93.5 52 -124.5
s80.334 -46.5 137.001 -46.5z" />
    <glyph glyph-name="afii10039" unicode="&#x425;" horiz-adv-x="732" 
d="M31 0l244 356l-234 344h180l147 -227l148 227h175l-234 -342l244 -358h-180l-157 240l-158 -240h-175z" />
    <glyph glyph-name="afii10040" unicode="&#x426;" horiz-adv-x="775" 
d="M603 -146v146h-519v700h154v-561h276v561h154v-561h83l-20 -285h-128z" />
    <glyph glyph-name="afii10041" unicode="&#x427;" horiz-adv-x="728" 
d="M490 0l0.000976562 261c-70.667 -34.667 -132.334 -52 -185.001 -52c-72.667 0 -130 19.667 -172 59s-63 98 -63 176v256h154v-211c0 -90.667 37.667 -136 113 -136c63.333 0 114.333 15 153 45v302h154v-700h-154z" />
    <glyph glyph-name="afii10042" unicode="&#x428;" horiz-adv-x="1129" 
d="M1045 700v-700h-961v700h154v-561h249v561h154v-561h250v561h154z" />
    <glyph glyph-name="afii10043" unicode="&#x429;" horiz-adv-x="1152" 
d="M980 -146v146h-896v700h154v-561h249v561h154v-561h250v561h154v-561h83l-20 -285h-128z" />
    <glyph glyph-name="afii10044" unicode="&#x42a;" horiz-adv-x="790" 
d="M487 330h-136v-191h137c76.667 0 115 32.667 115 98c0 62 -38.667 93 -116 93zM351 700v-238h149c80 0 142.667 -20.5 188 -61.5s68 -96.167 68 -165.5c0 -72 -23.833 -129.167 -71.5 -171.5s-112.5 -63.5 -194.5 -63.5h-293v561h-167v139h321z" />
    <glyph glyph-name="afii10045" unicode="&#x42b;" horiz-adv-x="959" 
d="M84 0v700h154v-238h149c80 0 142.667 -20.5 188 -61.5s68 -96.167 68 -165.5c0 -72 -23.833 -129.167 -71.5 -171.5s-112.5 -63.5 -194.5 -63.5h-293zM374 330h-136v-191h137c76.667 0 115 32.667 115 98c0 62 -38.667 93 -116 93zM721 0v700h154v-700h-154z" />
    <glyph glyph-name="afii10046" unicode="&#x42c;" horiz-adv-x="677" 
d="M84 0v700h154v-238h149c80 0 142.667 -20.5 188 -61.5s68 -96.167 68 -165.5c0 -72 -23.833 -129.167 -71.5 -171.5s-112.5 -63.5 -194.5 -63.5h-293zM374 330h-136v-191h137c76.667 0 115 32.667 115 98c0 62 -38.667 93 -116 93z" />
    <glyph glyph-name="afii10047" unicode="&#x42d;" horiz-adv-x="733" 
d="M228 289v128h286c-12.667 46.667 -37 84.5 -73 113.5s-77.667 43.5 -125 43.5c-66.667 0 -127.667 -24.667 -183 -74l-85 106c75.333 70.667 164.333 106 267 106c106 0 193.333 -35 262 -105s103 -155.667 103 -257c0 -102 -34.167 -187.833 -102.5 -257.5
s-153.833 -104.5 -256.5 -104.5c-65.333 0 -121 9.66699 -167 29s-87.667 49 -125 89l95 103c30.667 -28 60.667 -48.833 90 -62.5s63.333 -20.5 102 -20.5c49.333 0 91.833 15.167 127.5 45.5s59.5 69.5 71.5 117.5h-287z" />
    <glyph glyph-name="afii10048" unicode="&#x42e;" horiz-adv-x="1065" 
d="M670 -12c-88 0 -162.503 27.499 -223.503 82.499s-98.5 125.833 -112.5 212.5h-96v-283h-154v700h154v-279h97c14.667 84.667 52.834 154.334 114.501 209.001s135.834 82 222.501 82c98.667 0 180 -34.667 244 -104s96 -155.333 96 -258
c0 -102 -32.167 -187.833 -96.5 -257.5s-146.166 -104.5 -245.499 -104.5zM671.997 127.999c53.333 0 96.832 21.001 130.499 63.001s50.5 95 50.5 159c0 62.667 -17.167 115.167 -51.5 157.5s-78.166 63.5 -131.499 63.5s-96.833 -20.833 -130.5 -62.5
s-50.5 -94.5 -50.5 -158.5c0 -62.667 17 -115.334 51 -158.001s78 -64 132 -64z" />
    <glyph glyph-name="afii10049" unicode="&#x42f;" horiz-adv-x="723" 
d="M638 700v-700h-154v224h-121l-150 -224h-180l171 250c-100 37.333 -150 110.333 -150 219c0 72 23.5 128.5 70.5 169.5s111.5 61.5 193.5 61.5h320zM328 360l156 -0.000976562v201h-153c-38 0 -67.667 -8.66699 -89 -26s-32 -42.666 -32 -75.999c0 -30 10.5 -54 31.5 -72
s49.833 -27 86.5 -27z" />
    <glyph glyph-name="afii10065" unicode="&#x430;" horiz-adv-x="592" 
d="M220 -10c-52.667 0 -96.5 14.666 -131.5 43.999s-52.5 70 -52.5 122c0 56.667 19.5 99.334 58.5 128.001s91.5 43 157.5 43c44.667 0 88.334 -7.33301 131.001 -22v9c0 65.333 -38.333 98 -115 98c-46 0 -95.333 -9.66699 -148 -29l-38 116
c65.333 28.667 134.666 43 207.999 43c80.667 0 141 -20 181 -60c38.667 -38.667 58 -95.667 58 -171v-311h-147v58c-40.667 -45.333 -94.667 -68 -162 -68zM266 94.999c35.333 0 63.999 8.83301 85.999 26.5s33 40.167 33 67.5v27c-28.667 13.333 -61 20 -97 20
c-33.333 0 -59.166 -6.5 -77.499 -19.5s-27.5 -31.833 -27.5 -56.5c0 -20 7.66699 -35.833 23 -47.5s35.333 -17.5 60 -17.5z" />
    <glyph glyph-name="afii10066" unicode="&#x431;" horiz-adv-x="654" 
d="M335 119c38 0 69 13.1689 93 39.502s36 59.166 36 98.499c0 38.667 -12.5 71.667 -37.5 99s-56.167 41 -93.5 41c-38 0 -69 -13.5 -93 -40.5s-36 -60.167 -36 -99.5c0 -38.667 12.5 -71.334 37.5 -98.001s56.167 -40 93.5 -40zM333 -11.998
c-90.667 0 -160.001 27.5 -208.001 82.5s-72 134.167 -72 237.5c0 36.667 1.33301 69.167 4 97.5s8.5 58.5 17.5 90.5s21.333 59.333 37 82s37.667 43 66 61s61.833 30.667 100.5 38l287 53l24 -120l-294 -58c-81.333 -16.667 -124.666 -58.667 -129.999 -126
c12.667 22 36 42.5 70 61.5s75.667 28.5 125 28.5c69.333 0 129 -24.667 179 -74s75 -110.333 75 -183c0 -75.333 -26.667 -139.333 -80 -192s-120.333 -79 -201 -79z" />
    <glyph glyph-name="afii10067" unicode="&#x432;" horiz-adv-x="600" 
d="M68 536h294c54.667 0 98.167 -12 130.5 -36s48.5 -56.667 48.5 -98c0 -56 -28.333 -96.333 -85 -121c70 -21.333 105 -66.333 105 -135c0 -45.333 -17.833 -81 -53.5 -107s-84.5 -39 -146.5 -39h-293v536zM218 321h107c20.667 0 36.5 5 47.5 15s16.5 23 16.5 39
c0 14 -5.16699 25.667 -15.5 35s-25.833 14 -46.5 14h-109v-103zM218 119h120c46 0 69 18 69 54c0 34.667 -24.333 52 -73 52h-116v-106z" />
    <glyph glyph-name="afii10068" unicode="&#x433;" horiz-adv-x="474" 
d="M459 406h-239v-406h-152v536h391v-130z" />
    <glyph glyph-name="afii10069" unicode="&#x434;" horiz-adv-x="645" 
d="M222 130h182.999v276h-143v-12c-1.33301 -115.333 -14.666 -203.333 -39.999 -264zM483.999 0h-336l-11 -126h-128v256h58c34.667 74 52 194 52 360v46h438v-406h73l-18 -256h-128v126z" />
    <glyph glyph-name="afii10070" unicode="&#x435;" horiz-adv-x="613" 
d="M322 -12c-81.333 0 -148.334 25.832 -201.001 77.499s-79 118.834 -79 201.501c0 78 25 144 75 198s113.333 81 190 81c84.667 0 149.334 -28 194.001 -84s67 -125 67 -207c0 -8 -0.666992 -21.333 -2 -40h-373c7.33301 -34 22.333 -60 45 -78s51.334 -27 86.001 -27
c47.333 0 90.666 18.333 129.999 55l87 -77c-54 -66.667 -127 -100 -219 -100zM190.999 309.999l229.001 -0.00195312c-4.66699 34.667 -16.834 62.334 -36.501 83.001s-45.167 31 -76.5 31c-30.667 0 -56.167 -10.167 -76.5 -30.5s-33.5 -48.166 -39.5 -83.499z" />
    <glyph glyph-name="afii10072" unicode="&#x436;" horiz-adv-x="891" 
d="M522 0h-153v139l-64 75l-135 -214h-170l203 314l-197 222h175l188 -228v228h153v-228l188 228h176l-197 -222l202 -314h-169l-136 214l-64 -75v-139z" />
    <glyph glyph-name="afii10073" unicode="&#x437;" horiz-adv-x="523" 
d="M100 366l-65 93.001c60.667 56 136 84 226 84c58 0 106.5 -13.833 145.5 -41.5s58.5 -62.167 58.5 -103.5c0 -56 -27.333 -96.333 -82 -121c63.333 -22.667 95 -64.334 95 -125.001c0 -46.667 -20.333 -85.667 -61 -117s-92.334 -47 -155.001 -47
c-98.667 0 -180 28.333 -244 85l70 97c47.333 -40.667 101 -61 161 -61c22.667 0 41.5 5.5 56.5 16.5s22.5 24.5 22.5 40.5s-7.83301 29.167 -23.5 39.5s-37.5 15.5 -65.5 15.5h-63v95h62c23.333 0 42 5.33301 56 16s21 23.667 21 39c0 14 -6.66699 26 -20 36s-30 15 -50 15
c-57.333 0 -105.666 -18.667 -144.999 -56z" />
    <glyph glyph-name="afii10074" unicode="&#x438;" horiz-adv-x="635" 
d="M567 536v-536h-147v312l-209 -312h-143v536h147v-313l209 313h143z" />
    <glyph glyph-name="afii10075" unicode="&#x439;" horiz-adv-x="635" 
d="M567 536v-536h-147v312l-209 -312h-143v536h147v-313l209 313h143zM322 587c-46 0 -83.8311 13.333 -113.498 40s-47.834 64 -54.501 112l89 16c14 -44.667 40.333 -67 79 -67s65 22.333 79 67l89 -16c-6.66699 -48 -24.834 -85.333 -54.501 -112s-67.5 -40 -113.5 -40z
" />
    <glyph glyph-name="afii10076" unicode="&#x43a;" horiz-adv-x="611" 
d="M68 0v536h152v-220l192 220h175l-197 -220l222 -316h-180l-143 204l-69 -75v-129h-152z" />
    <glyph glyph-name="afii10077" unicode="&#x43b;" horiz-adv-x="631" 
d="M132 536l431.001 0.00390625v-536h-152v406h-136c0 -70.667 -2.66699 -130.334 -8 -179.001s-12.666 -88.334 -21.999 -119.001s-22.333 -54.334 -39 -71.001s-34.667 -28 -54 -34s-43.333 -9 -72 -9c-27.333 0 -53 3 -77 9l10 123c12 -2 22.667 -3 32 -3
c16 0 28.667 3.83301 38 11.5s18.166 25 26.499 52s14.166 68.667 17.499 125s5 131.166 5 224.499z" />
    <glyph glyph-name="afii10078" unicode="&#x43c;" horiz-adv-x="736" 
d="M68 0v536h154l145 -225l147 225h154v-536h-154v322l-149 -220l-147 217v-319h-150z" />
    <glyph glyph-name="afii10079" unicode="&#x43d;" horiz-adv-x="627" 
d="M559 536v-536h-152v205h-187v-205h-152v536h152v-206h187v206h152z" />
    <glyph glyph-name="afii10080" unicode="&#x43e;" horiz-adv-x="664" 
d="M331 -12c-82.667 0 -151.5 26.833 -206.5 80.5s-82.5 119.834 -82.5 198.501c0 78 27.833 144 83.5 198s124.834 81 207.501 81s151.5 -26.833 206.5 -80.5s82.5 -119.834 82.5 -198.501c0 -78 -27.833 -144 -83.5 -198s-124.834 -81 -207.501 -81zM333 119
c42 0 75.667 14.167 101 42.5s38 63.5 38 105.5c0 40.667 -13.167 75.5 -39.5 104.5s-60.166 43.5 -101.499 43.5c-42 0 -75.667 -14.167 -101 -42.5s-38 -63.5 -38 -105.5c0 -40.667 13.167 -75.5 39.5 -104.5s60.166 -43.5 101.499 -43.5z" />
    <glyph glyph-name="afii10081" unicode="&#x43f;" horiz-adv-x="623" 
d="M555 536v-536h-152v406h-183v-406h-152v536h487z" />
    <glyph glyph-name="afii10082" unicode="&#x440;" horiz-adv-x="675" 
d="M68 -160v696h152v-77c42.667 58 98.334 87 167.001 87c66.667 0 124 -25 172 -75s72 -118 72 -204c0 -85.333 -23.833 -152.833 -71.5 -202.5s-105.167 -74.5 -172.5 -74.5c-66.667 0 -122.334 26.667 -167.001 80v-230h-152zM348 119c36.667 0 67.667 13.833 93 41.5
s38 63.834 38 108.501c0 43.333 -12.667 78.833 -38 106.5s-56.333 41.5 -93 41.5s-67.5 -13.833 -92.5 -41.5s-37.5 -63.834 -37.5 -108.501c0 -43.333 12.5 -78.833 37.5 -106.5s55.833 -41.5 92.5 -41.5z" />
    <glyph glyph-name="afii10083" unicode="&#x441;" horiz-adv-x="571" 
d="M321 -12c-80 0 -146.501 27.001 -199.501 81.001s-79.5 120 -79.5 198c0 77.333 26.667 143.166 80 197.499s120.333 81.5 201 81.5c86 0 157 -31.333 213 -94l-89 -90c-37.333 35.333 -79 53 -125 53c-37.333 0 -68.333 -14.333 -93 -43s-37 -63.667 -37 -105
c0 -42 12.5 -77.167 37.5 -105.5s57.833 -42.5 98.5 -42.5c42 0 83 19 123 57l89 -90c-29.333 -32 -60.666 -56.333 -93.999 -73s-75 -25 -125 -25z" />
    <glyph glyph-name="afii10084" unicode="&#x442;" horiz-adv-x="502" 
d="M487 536v-130h-159v-406h-154v406h-159v130h472z" />
    <glyph glyph-name="afii10085" unicode="&#x443;" horiz-adv-x="600" 
d="M196 -163c-48 0 -93 12.332 -135 36.999l51 110c23.333 -14 45 -21 65 -21c24 0 41.667 11.667 53 35l-210 538h161l122 -365l117 365h158l-206 -549c-20.667 -55.333 -44 -94.166 -70 -116.499s-61.333 -33.5 -106 -33.5z" />
    <glyph glyph-name="afii10086" unicode="&#x444;" horiz-adv-x="903" 
d="M593 415c-20 0 -41.668 -8.66699 -65.001 -26v-245c21.333 -16 43 -24 65 -24c36.667 0 64.834 13 84.501 39s29.5 62 29.5 108c0 44.667 -10 80.5 -30 107.5s-48 40.5 -84 40.5zM527.999 -160h-153.002v196c-11.333 -12 -27.333 -22.167 -48 -30.5
s-42.667 -12.5 -66 -12.5c-64.667 0 -117 24.333 -157 73s-60 115.667 -60 201s20 152.5 60 201.5s92.667 73.5 158 73.5c22.667 0 44.334 -5 65.001 -15s36.667 -21.667 48 -35v208h153v-208c11.333 13.333 27.333 25 48 35s42.334 15 65.001 15
c65.333 0 118 -24.5 158 -73.5s60 -116.167 60 -201.5s-20 -152.333 -60 -201s-92.333 -73 -157 -73c-23.333 0 -45.333 4.16699 -66 12.5s-36.667 18.5 -48 30.5v-196zM309.997 415c-36 0 -64.001 -13.5 -84.001 -40.5s-30 -62.833 -30 -107.5c0 -46 9.83301 -82 29.5 -108
s47.834 -39 84.501 -39c22 0 43.667 8 65 24v245c-23.333 17.333 -45 26 -65 26z" />
    <glyph glyph-name="afii10087" unicode="&#x445;" horiz-adv-x="584" 
d="M23 0l188 272l-181 264h163l100 -156l101 156h159l-181 -261l189 -275h-163l-108 167l-108 -167h-159z" />
    <glyph glyph-name="afii10088" unicode="&#x446;" horiz-adv-x="643" 
d="M482 -126v126h-414v536h152v-406h183v406h152v-406h73l-18 -256h-128z" />
    <glyph glyph-name="afii10089" unicode="&#x447;" horiz-adv-x="606" 
d="M207 536l-0.000976562 -168c0 -58.667 24.667 -88 74 -88c34.667 0 69.334 8.66699 104.001 26v230h153v-536h-153v187c-48 -23.333 -96.333 -35 -145 -35c-55.333 0 -100.333 15.167 -135 45.5s-52 72.833 -52 127.5v211h154z" />
    <glyph glyph-name="afii10090" unicode="&#x448;" horiz-adv-x="934" 
d="M866 536v-536h-798v536h152v-406h171v406h152v-406h170v406h153z" />
    <glyph glyph-name="afii10091" unicode="&#x449;" horiz-adv-x="954" 
d="M793 0h-725v536h152v-406h171v406h152v-406h170v406h153v-406h73l-18 -256h-128v126z" />
    <glyph glyph-name="afii10092" unicode="&#x44a;" horiz-adv-x="649" 
d="M401 244l-95 -0.000976562v-124h96c50 0 75 21.333 75 64c0 18.667 -6.5 33.334 -19.5 44.001s-31.833 16 -56.5 16zM306 535.999v-177h110c64.667 0 116.5 -15 155.5 -45s58.5 -74 58.5 -132c0 -56.667 -18.167 -101.167 -54.5 -133.5s-86.833 -48.5 -151.5 -48.5h-270
v408h-139v128h291z" />
    <glyph glyph-name="afii10093" unicode="&#x44b;" horiz-adv-x="835" 
d="M68 0v536h152v-177h110c64.667 0 116.5 -15 155.5 -45s58.5 -74 58.5 -132c0 -56.667 -18.167 -101.167 -54.5 -133.5s-86.833 -48.5 -151.5 -48.5h-270zM315 244l-95 -0.000976562v-124h96c50 0 75 21.333 75 64c0 18.667 -6.5 33.334 -19.5 44.001s-31.833 16 -56.5 16
zM615 -0.000976562v536h152v-536h-152z" />
    <glyph glyph-name="afii10094" unicode="&#x44c;" horiz-adv-x="563" 
d="M68 0v536h152v-177h110c64.667 0 116.5 -15 155.5 -45s58.5 -74 58.5 -132c0 -56.667 -18.167 -101.167 -54.5 -133.5s-86.833 -48.5 -151.5 -48.5h-270zM315 244l-95 -0.000976562v-124h96c50 0 75 21.333 75 64c0 18.667 -6.5 33.334 -19.5 44.001s-31.833 16 -56.5 16
z" />
    <glyph glyph-name="afii10095" unicode="&#x44d;" horiz-adv-x="575" 
d="M193 217l-0.000976562 101.998h186c-9.33301 30 -25.166 54.167 -47.499 72.5s-48.5 27.5 -78.5 27.5c-50.667 0 -94 -17 -130 -51l-79 93c56.667 56.667 126 85 208 85c80.667 0 147.667 -27.167 201 -81.5s80 -120.166 80 -197.499c0 -78 -26.5 -144 -79.5 -198
s-119.5 -81 -199.5 -81c-89.333 0 -163.666 32.667 -222.999 98l86 87c40.667 -38.667 84 -58 130 -58c32.667 0 60.667 9.33301 84 28s39.666 43.334 48.999 74.001h-187z" />
    <glyph glyph-name="afii10096" unicode="&#x44e;" horiz-adv-x="869" 
d="M556 -12c-68 0 -125.833 20.168 -173.5 60.501s-77.5 92.5 -89.5 156.5h-73v-205h-152v536h152v-206h73c13.333 63.333 43.833 115.166 91.5 155.499s105.5 60.5 173.5 60.5c79.333 0 144 -26.667 194 -80s75 -119.666 75 -198.999
c0 -78.667 -25.333 -144.834 -76 -198.501s-115.667 -80.5 -195 -80.5zM558 119.001c39.333 0 69 13.833 89 41.5s30 63.167 30 106.5c0 42 -10.667 77.167 -32 105.5s-51 42.5 -89 42.5c-39.333 0 -69 -13.833 -89 -41.5s-30 -63.167 -30 -106.5
c0 -42 10.667 -77.167 32 -105.5s51 -42.5 89 -42.5z" />
    <glyph glyph-name="afii10097" unicode="&#x44f;" horiz-adv-x="611" 
d="M543 536v-536h-152v172h-82l-113 -172h-176l137 197c-74.667 28.667 -112 82 -112 160c0 54.667 19 98.167 57 130.5s91.333 48.5 160 48.5h281zM288 282h103v135h-104c-28 0 -49.667 -5.83301 -65 -17.5s-23 -28.5 -23 -50.5c0 -21.333 7.83301 -37.833 23.5 -49.5
s37.5 -17.5 65.5 -17.5z" />
    <glyph glyph-name="afii10071" unicode="&#x451;" horiz-adv-x="613" 
d="M322 -12c-81.333 0 -148.334 25.832 -201.001 77.499s-79 118.834 -79 201.501c0 78 25 144 75 198s113.333 81 190 81c84.667 0 149.334 -28 194.001 -84s67 -125 67 -207c0 -8 -0.666992 -21.333 -2 -40h-373c7.33301 -34 22.333 -60 45 -78s51.334 -27 86.001 -27
c47.333 0 90.666 18.333 129.999 55l87 -77c-54 -66.667 -127 -100 -219 -100zM190.999 309.999l229.001 -0.00195312c-4.66699 34.667 -16.834 62.334 -36.501 83.001s-45.167 31 -76.5 31c-30.667 0 -56.167 -10.167 -76.5 -30.5s-33.5 -48.166 -39.5 -83.499z
M340 594.997v135h146v-135h-146zM126 594.997v135h146v-135h-146z" />
    <glyph glyph-name="afii10099" unicode="&#x452;" horiz-adv-x="623" 
d="M407 238v20.998c0 35.333 -8 62.333 -24 81s-38.667 28 -68 28s-52.5 -9.33301 -69.5 -28s-25.5 -45.667 -25.5 -81v-259h-152v551h-66v106h66v73h152v-73h156v-106h-156v-131c44.667 57.333 97 86 157 86c57.333 0 102 -17.667 134 -53s48 -84 48 -146v-114
c0 -62 -17.667 -111 -53 -147s-81.333 -54 -138 -54c-15.333 0 -29.5 0.833008 -42.5 2.5s-22.667 3.33398 -29 5.00098s-13.333 3.83398 -21 6.50098l-14.5 5l25 116c4.66699 -1.33301 12 -2 22 -2c30 0 54 10 72 30s27 47.667 27 83z" />
    <glyph glyph-name="afii10100" unicode="&#x453;" horiz-adv-x="474" 
d="M459 406h-239v-406h-152v536h391v-130zM165 595l113 177l131 -57l-128 -120h-116z" />
    <glyph glyph-name="afii10101" unicode="&#x454;" horiz-adv-x="575" 
d="M382 319l-0.000976562 -101.998h-187c9.33301 -30.667 25.666 -55.334 48.999 -74.001s51.333 -28 84 -28c46 0 89.333 19.333 130 58l86 -87c-59.333 -65.333 -133.666 -98 -222.999 -98c-80 0 -146.5 27 -199.5 81s-79.5 120 -79.5 198
c0 77.333 26.667 143.166 80 197.499s120.333 81.5 201 81.5c82 0 151.333 -28.333 208 -85l-79 -93c-36 34 -79.333 51 -130 51c-30 0 -56.167 -9.16699 -78.5 -27.5s-38.166 -42.5 -47.499 -72.5h186z" />
    <glyph glyph-name="afii10102" unicode="&#x455;" horiz-adv-x="502" 
d="M256 -10c-84.667 0 -161.331 27.001 -229.998 81.001l65 100c58.667 -42.667 115 -64 169 -64c42.667 0 64 14 64 42c0 3.33301 -0.5 6.66602 -1.5 9.99902s-2.83301 6.33301 -5.5 9s-5.5 5.16699 -8.5 7.5s-7 4.66602 -12 6.99902l-13 6
c-3.66699 1.66699 -8.83398 3.66699 -15.501 6s-12.334 4.16602 -17.001 5.49902l-19 5.5l-19 5.5c-22.667 6.66699 -41.834 13.5 -57.501 20.5s-32.167 16.667 -49.5 29s-30.5 28 -39.5 47s-13.5 41.167 -13.5 66.5c0 52.667 18.667 94.167 56 124.5s84 45.5 140 45.5
c72 0 138.667 -20.667 200 -62l-58 -105c-56.667 33.333 -105 50 -145 50c-37.333 0 -56 -13 -56 -39c0 -18 30.667 -37.333 92 -58c7.33301 -2.66699 13 -4.66699 17 -6c18 -6 33.333 -11.667 46 -17s27 -12.666 43 -21.999s28.833 -19.166 38.5 -29.499
s17.834 -23.5 24.501 -39.5s10 -33.667 10 -53c0 -57.333 -18.833 -100.5 -56.5 -129.5s-87.167 -43.5 -148.5 -43.5z" />
    <glyph glyph-name="afii10103" unicode="&#x456;" horiz-adv-x="302" 
d="M71 595v135h160v-135h-160zM75 0v536h152v-536h-152z" />
    <glyph glyph-name="afii10104" unicode="&#x457;" horiz-adv-x="302" 
d="M185 595v135h146v-135h-146zM-29 595v135h146v-135h-146zM75 0v536h152v-536h-152z" />
    <glyph glyph-name="afii10105" unicode="&#x458;" horiz-adv-x="302" 
d="M71 595v135h160v-135h-160zM55 -163c-23.333 0 -45.333 2 -66 6v119c12 -2 22.667 -3 32 -3c36 0 54 20.667 54 62v515h152v-527c0 -114.667 -57.333 -172 -172 -172z" />
    <glyph glyph-name="afii10106" unicode="&#x459;" horiz-adv-x="906" 
d="M411 0l0.00195312 406.004h-136c0 -70.667 -2.66699 -130.334 -8 -179.001s-12.666 -88.334 -21.999 -119.001s-22.333 -54.334 -39 -71.001s-34.667 -28 -54 -34s-43.333 -9 -72 -9c-30.667 0 -56.334 3 -77.001 9l10 123c12 -2 22.667 -3 32 -3
c16 0 28.667 3.83301 38 11.5s18.166 25 26.499 52s14.166 68.667 17.499 125s5 131.166 5 224.499h431v-177h110c64.667 0 116.5 -15 155.5 -45s58.5 -74 58.5 -132c0 -56.667 -18.167 -101.167 -54.5 -133.5s-86.833 -48.5 -151.5 -48.5h-270zM658.002 244.004
l-95 -0.000976562v-124h96c50 0 75 21.333 75 64c0 18.667 -6.5 33.334 -19.5 44.001s-31.833 16 -56.5 16z" />
    <glyph glyph-name="afii10107" unicode="&#x45a;" horiz-adv-x="902" 
d="M407 0v236h-187v-236h-152v536h152v-185h187v185h152v-185h110c64.667 0 116.5 -14.5 155.5 -43.5s58.5 -72.5 58.5 -130.5c0 -56 -18.167 -99.5 -54.5 -130.5s-86.833 -46.5 -151.5 -46.5h-270zM654 236h-95v-116h96c50 0 75 19.667 75 59c0 38 -25.333 57 -76 57z" />
    <glyph glyph-name="afii10108" unicode="&#x45b;" horiz-adv-x="623" 
d="M2 657h66v73h152v-73h156v-106h-156v-131c44.667 57.333 97 86 157 86c57.333 0 102 -17.667 134 -53s48 -84 48 -146v-307h-152v259c0 35.333 -8 62.333 -24 81s-38.667 28 -68 28s-52.5 -9.33301 -69.5 -28s-25.5 -45.667 -25.5 -81v-259h-152v551h-66v106z" />
    <glyph glyph-name="afii10109" unicode="&#x45c;" horiz-adv-x="611" 
d="M68 0v536h152v-220l192 220h175l-197 -220l222 -316h-180l-143 204l-69 -75v-129h-152zM233 595l113 177l131 -57l-128 -120h-116z" />
    <glyph glyph-name="afii10110" unicode="&#x45e;" horiz-adv-x="600" 
d="M196 -163c-48 0 -93 12.332 -135 36.999l51 110c23.333 -14 45 -21 65 -21c24 0 41.667 11.667 53 35l-210 538h161l122 -365l117 365h158l-206 -549c-20.667 -55.333 -44 -94.166 -70 -116.499s-61.333 -33.5 -106 -33.5zM302 586.999
c-46 0 -83.8311 13.333 -113.498 40s-47.834 64 -54.501 112l89 16c14 -44.667 40.333 -67 79 -67s65 22.333 79 67l89 -16c-6.66699 -48 -24.834 -85.333 -54.501 -112s-67.5 -40 -113.5 -40z" />
    <glyph glyph-name="afii10193" unicode="&#x45f;" horiz-adv-x="623" 
d="M242 -126v126h-174v536h152v-406h183v406h152v-536h-170v-126h-143z" />
    <glyph glyph-name="afii10050" unicode="&#x490;" horiz-adv-x="598" 
d="M573 561h-335v-561h-154v700h341v146h128z" />
    <glyph glyph-name="afii10098" unicode="&#x491;" horiz-adv-x="474" 
d="M459 406h-239v-406h-152v536h245v126h128z" />
    <glyph glyph-name="endash" unicode="&#x2013;" horiz-adv-x="528" 
d="M50 239v142h428v-142h-428z" />
    <glyph glyph-name="emdash" unicode="&#x2014;" horiz-adv-x="898" 
d="M50 239v142h798v-142h-798z" />
    <glyph glyph-name="quoteleft" unicode="&#x2018;" horiz-adv-x="286" 
d="M57 383l0.000976562 135c0 64 15.5 110.833 46.5 140.5s77.167 45.167 138.5 46.5l13 -63c-70.667 -7.33301 -103.334 -40.333 -98.001 -99h62v-160h-162z" />
    <glyph glyph-name="quoteright" unicode="&#x2019;" horiz-adv-x="286" 
d="M44 378l-13.001 63c70.667 7.33301 103.334 40.333 98.001 99h-62v160h162v-135c0 -64 -15.5 -110.833 -46.5 -140.5s-77.167 -45.167 -138.5 -46.5z" />
    <glyph glyph-name="quotesinglbase" unicode="&#x201a;" horiz-adv-x="286" 
d="M39 -162l-13.001 63c70.667 7.33301 103.334 40.333 98.001 99h-62v160h162v-135c0 -64 -15.5 -110.833 -46.5 -140.5s-77.167 -45.167 -138.5 -46.5z" />
    <glyph glyph-name="quotedblleft" unicode="&#x201c;" horiz-adv-x="540" 
d="M311 383l0.000976562 135c0 64 15.5 110.833 46.5 140.5s77.167 45.167 138.5 46.5l13 -63c-70.667 -7.33301 -103.334 -40.333 -98.001 -99h62v-160h-162zM57.001 383l0.000976562 135c0 64 15.5 110.833 46.5 140.5s77.167 45.167 138.5 46.5l13 -63
c-70.667 -7.33301 -103.334 -40.333 -98.001 -99h62v-160h-162z" />
    <glyph glyph-name="quotedblright" unicode="&#x201d;" horiz-adv-x="540" 
d="M298 378l-13.001 63c70.667 7.33301 103.334 40.333 98.001 99h-62v160h162v-135c0 -64 -15.5 -110.833 -46.5 -140.5s-77.167 -45.167 -138.5 -46.5zM43.999 378l-13.001 63c70.667 7.33301 103.334 40.333 98.001 99h-62v160h162v-135
c0 -64 -15.5 -110.833 -46.5 -140.5s-77.167 -45.167 -138.5 -46.5z" />
    <glyph glyph-name="quotedblbase" unicode="&#x201e;" horiz-adv-x="540" 
d="M293 -162l-13.001 63c70.667 7.33301 103.334 40.333 98.001 99h-62v160h162v-135c0 -64 -15.5 -110.833 -46.5 -140.5s-77.167 -45.167 -138.5 -46.5zM38.999 -162l-13.001 63c70.667 7.33301 103.334 40.333 98.001 99h-62v160h162v-135
c0 -64 -15.5 -110.833 -46.5 -140.5s-77.167 -45.167 -138.5 -46.5z" />
    <glyph glyph-name="dagger" unicode="&#x2020;" horiz-adv-x="410" 
d="M163 238l10 270l-120 -10v83l119 -10l-13 129h92l-13 -129l119 10v-83l-120 10l10 -270h-84z" />
    <glyph glyph-name="daggerdbl" unicode="&#x2021;" horiz-adv-x="430" 
d="M169 0l13 129l-119 -10v83l119 -10l-9 158l9 158l-119 -10v83l119 -10l-13 129h92l-13 -129l119 10v-83l-119 10l9 -158l-9 -158l119 10v-83l-119 10l13 -129h-92z" />
    <glyph glyph-name="bullet" unicode="&#x2022;" 
d="M250 203c-41.333 0 -76.5 14.5 -105.5 43.5s-43.5 63.833 -43.5 104.5v2c0 40.667 14.5 75.5 43.5 104.5s64.167 43.5 105.5 43.5s76.5 -14.5 105.5 -43.5s43.5 -63.833 43.5 -104.5v-2c0 -40.667 -14.5 -75.5 -43.5 -104.5s-64.167 -43.5 -105.5 -43.5z" />
    <glyph glyph-name="ellipsis" unicode="&#x2026;" horiz-adv-x="840" 
d="M620 0v156h158v-156h-158zM341 0v156h158v-156h-158zM62 0v156h158v-156h-158z" />
    <glyph glyph-name="perthousand" unicode="&#x2030;" horiz-adv-x="1240" 
d="M214 350c-49.333 0 -89.833 17 -121.5 51s-47.5 76 -47.5 126v2c0 50.667 16 93.167 48 127.5s73 51.5 123 51.5c49.333 0 89.833 -17 121.5 -51s47.5 -76 47.5 -126v-2c0 -50 -16 -92.333 -48 -127s-73 -52 -123 -52zM115 0l511 700h119l-511 -700h-119zM1024 -8
c-49.333 0 -89.833 17 -121.5 51s-47.5 76 -47.5 126v2c0 50.667 16 93.167 48 127.5s73 51.5 123 51.5c49.333 0 89.833 -17 121.5 -51s47.5 -76 47.5 -126v-2c0 -50 -16 -92.333 -48 -127s-73 -52 -123 -52zM644 -8c-49.333 0 -89.833 17 -121.5 51s-47.5 76 -47.5 126v2
c0 50.667 16 93.167 48 127.5s73 51.5 123 51.5c49.333 0 89.833 -17 121.5 -51s47.5 -76 47.5 -126v-2c0 -50 -16 -92.333 -48 -127s-73 -52 -123 -52zM216 441c20 0 35.667 8.33301 47 25s17 37 17 61v2c0 24 -6.16699 44.667 -18.5 62s-28.166 26 -47.499 26
c-20 0 -35.667 -8.33301 -47 -25s-17 -37 -17 -61v-2c0 -24 6.16699 -44.667 18.5 -62s28.166 -26 47.499 -26zM1026 83c20 0 35.667 8.33301 47 25s17 37 17 61v2c0 24 -6.16699 44.667 -18.5 62s-28.166 26 -47.499 26c-20 0 -35.667 -8.33301 -47 -25s-17 -37 -17 -61v-2
c0 -24 6.16699 -44.667 18.5 -62s28.166 -26 47.499 -26zM646 83c20 0 35.667 8.33301 47 25s17 37 17 61v2c0 24 -6.16699 44.667 -18.5 62s-28.166 26 -47.499 26c-20 0 -35.667 -8.33301 -47 -25s-17 -37 -17 -61v-2c0 -24 6.16699 -44.667 18.5 -62
s28.166 -26 47.499 -26z" />
    <glyph glyph-name="guilsinglleft" unicode="&#x2039;" horiz-adv-x="373" 
d="M209 40l-168 224v8l168 224l116 -56l-130 -171l130 -171z" />
    <glyph glyph-name="guilsinglright" unicode="&#x203a;" horiz-adv-x="373" 
d="M164 40l-116 56l130 171l-130 171l116 58l168 -224v-8z" />
    <glyph glyph-name="fraction" unicode="&#x2044;" horiz-adv-x="480" 
d="M-71 -98l466 856h134l-466 -856h-134z" />
    <glyph glyph-name="Euro" unicode="&#x20ac;" horiz-adv-x="720" 
d="M437 -12c-74.667 0 -137.665 20.501 -188.998 61.501s-87 96.833 -107 167.5h-92v101h75c-0.666992 6.66699 -1 17.334 -1 32.001c0 16 0.333008 28 1 36h-75v101h94c21.333 68 57.333 122.5 108 163.5s111.667 61.5 183 61.5c58 0 106.167 -11 144.5 -33
s72.166 -53.667 101.499 -95l-116 -88c-20 26.667 -40.167 46.5 -60.5 59.5s-44.5 19.5 -72.5 19.5c-58 0 -100.667 -29.333 -128 -88h185v-101h-208c-0.666992 -7.33301 -1 -19.333 -1 -36c0 -14.667 0.333008 -25.334 1 -32.001h208v-101h-186
c27.333 -61.333 72.333 -92 135 -92c27.333 0 50.666 6.33301 69.999 19s41 33.667 65 63l110 -81c-32 -44.667 -67.333 -78.834 -106 -102.501s-85 -35.5 -139 -35.5z" />
    <glyph glyph-name="afii61352" unicode="&#x2116;" horiz-adv-x="1061" 
d="M62 0v700h144l273 -424v424h159v-700h-133l-284 436v-436h-159zM721 124v91h268v-91h-268zM854 265c-44 0 -80.5 14.667 -109.5 44s-43.5 65.666 -43.5 108.999s14.833 79.833 44.5 109.5s66.5 44.5 110.5 44.5s80.5 -14.667 109.5 -44s43.5 -65.666 43.5 -108.999
s-14.833 -79.833 -44.5 -109.5s-66.5 -44.5 -110.5 -44.5zM856 345c18.667 0 33.834 7 45.501 21s17.5 31.333 17.5 52s-6 38.167 -18 52.5s-27.667 21.5 -47 21.5c-18.667 0 -33.834 -7 -45.501 -21s-17.5 -31.333 -17.5 -52s6 -38.167 18 -52.5s27.667 -21.5 47 -21.5z
" />
    <glyph glyph-name="published" unicode="&#x2117;" horiz-adv-x="830" 
d="M414 -12c-100.667 0 -186 35.167 -256 105.5s-105 155.166 -105 254.499v2c0 99.333 35.333 184.5 106 255.5s156.334 106.5 257.001 106.5s186 -35.167 256 -105.5s105 -155.166 105 -254.499v-2c0 -99.333 -35.333 -184.5 -106 -255.5s-156.334 -106.5 -257.001 -106.5
zM414 28c90.667 0 166.834 31.333 228.501 94s92.5 138.667 92.5 228v2c0 89.333 -30.5 165 -91.5 227s-136.833 93 -227.5 93s-166.834 -31.333 -228.501 -94s-92.5 -138.667 -92.5 -228v-2c0 -89.333 30.5 -165 91.5 -227s136.833 -93 227.5 -93zM282 164
l-0.000976562 385h158c45.333 0 81.333 -12.167 108 -36.5s40 -56.5 40 -96.5v-2c0 -42.667 -14.667 -75.667 -44 -99s-66.666 -35 -111.999 -35h-64v-116h-86zM367.999 355h65.999c20.667 0 37 5.5 49 16.5s18 24.833 18 41.5v2c0 18 -6.16699 32.167 -18.5 42.5
s-29.166 15.5 -50.499 15.5h-64v-118z" />
    <glyph glyph-name="trademark" unicode="&#x2122;" horiz-adv-x="690" 
d="M345 392v308h74l81 -130l81 130h72v-308h-66v208l-85 -135h-6l-85 135v-208h-66zM118 392v246h-92v62h254v-62h-92v-246h-70z" />
    <glyph glyph-name="partialdiff" unicode="&#x2202;" 
d="M0 0v700h500v-700h-500zM81 49h339l-170 255zM49 96l171 254l-171 254v-508zM450 96v508l-171 -254zM250 395l170 255h-339z" />
    <glyph glyph-name="Delta" unicode="&#x2206;" horiz-adv-x="570" 
d="M740 0h-723l290 700h143zM380 498l-140 -362h281z" />
    <glyph glyph-name="product" unicode="&#x220f;" 
d="M0 0v700h500v-700h-500zM81 49h339l-170 255zM49 96l171 254l-171 254v-508zM450 96v508l-171 -254zM250 395l170 255h-339z" />
    <glyph glyph-name="summation" unicode="&#x2211;" 
d="M0 0v700h500v-700h-500zM81 49h339l-170 255zM49 96l171 254l-171 254v-508zM450 96v508l-171 -254zM250 395l170 255h-339z" />
    <glyph glyph-name="minus" unicode="&#x2212;" horiz-adv-x="640" 
d="M557 282h-474v140h474v-140z" />
    <glyph glyph-name="radical" unicode="&#x221a;" horiz-adv-x="605" 
d="M82 231h-107v98h168l113 -218l288 687h112l-389 -926z" />
    <glyph glyph-name="infinity" unicode="&#x221e;" horiz-adv-x="864" 
d="M240 146c-60 0 -107.5 19.499 -142.5 58.499s-52.5 88.833 -52.5 149.5c0 59.333 17.167 108 51.5 146s80.833 57 139.5 57c42 0 77.5 -10.333 106.5 -31s58.833 -51.334 89.5 -92.001c30.667 40.667 60.5 71.334 89.5 92.001s64.5 31 106.5 31
c58.667 0 105.167 -19 139.5 -57s51.5 -86.667 51.5 -146c0 -60 -17.167 -109.667 -51.5 -149s-81.166 -59 -140.499 -59c-38.667 0 -73.334 10.333 -104.001 31s-61 49.334 -91 86.001c-31.333 -38 -61.333 -67 -90 -87s-62.667 -30 -102 -30zM239 270.999
c38.667 0 79 27 121 81c-42 54 -83 81 -123 81c-22.667 0 -40.667 -7.83301 -54 -23.5s-20 -34.834 -20 -57.501c0 -23.333 6.83301 -42.666 20.5 -57.999s32.167 -23 55.5 -23zM627 270.999c23.333 0 41.5 7.66895 54.5 23.002s19.5 34.666 19.5 57.999
s-7 42.666 -21 57.999s-32.667 23 -56 23c-38.667 0 -78.667 -27 -120 -81c42.667 -54 83.667 -81 123 -81z" />
    <glyph glyph-name="integral" unicode="&#x222b;" 
d="M0 0v700h500v-700h-500zM81 49h339l-170 255zM49 96l171 254l-171 254v-508zM450 96v508l-171 -254zM250 395l170 255h-339z" />
    <glyph glyph-name="approxequal" unicode="&#x2248;" horiz-adv-x="640" 
d="M150 385l-75.999 21c23.333 102.667 72 154 146 154c20 0 55.667 -6.5 107 -19.5s81.666 -19.5 90.999 -19.5c37.333 0 62.333 15.667 75 47l77 -21c-23.333 -102.667 -72 -154 -146 -154c-20 0 -55.833 6.5 -107.5 19.5s-82.167 19.5 -91.5 19.5
c-36.667 0 -61.667 -15.667 -75 -47zM150.001 131l-75.999 21c23.333 102.667 72 154 146 154c20 0 55.667 -6.5 107 -19.5s81.666 -19.5 90.999 -19.5c37.333 0 62.333 15.667 75 47l77 -21c-23.333 -102.667 -72 -154 -146 -154c-20 0 -55.833 6.5 -107.5 19.5
s-82.167 19.5 -91.5 19.5c-36.667 0 -61.667 -15.667 -75 -47z" />
    <glyph glyph-name="notequal" unicode="&#x2260;" horiz-adv-x="640" 
d="M79 413v136h320l68 103h95l-68 -103h66v-136h-155l-80 -122h235v-136h-323l-71 -107h-95l70 107h-62v136h151l80 122h-231z" />
    <glyph glyph-name="lessequal" unicode="&#x2264;" horiz-adv-x="640" 
d="M563 182l-483 166v141l483 166v-145l-339 -91l339 -92v-145zM79 17v129h485v-129h-485z" />
    <glyph glyph-name="greaterequal" unicode="&#x2265;" horiz-adv-x="640" 
d="M563 348l-483 -166v145l339 92l-339 91v145l483 -166v-141zM564 146v-129h-485v129h485z" />
    <glyph glyph-name="lozenge" unicode="&#x25ca;" horiz-adv-x="640" 
d="M573 356l-190 -391h-128l-188 391l189 391h127zM429 356l-109 249l-109 -249l109 -250z" />
    <glyph glyph-name="cyrBreve" unicode="&#xf6d1;" 
d="M248 593c-46 0 -83.8311 13.333 -113.498 40s-47.834 64 -54.501 112l89 16c14 -44.667 40.333 -67 79 -67s65 22.333 79 67l89 -16c-6.66699 -48 -24.834 -85.333 -54.501 -112s-67.5 -40 -113.5 -40z" />
    <glyph glyph-name="cyrbreve" unicode="&#xf6d4;" 
d="M248 587c-46 0 -83.8311 13.333 -113.498 40s-47.834 64 -54.501 112l89 16c14 -44.667 40.333 -67 79 -67s65 22.333 79 67l89 -16c-6.66699 -48 -24.834 -85.333 -54.501 -112s-67.5 -40 -113.5 -40z" />
    <glyph glyph-name="ff" unicode="&#xfb00;" horiz-adv-x="764" 
d="M476 0v406h-63v125h63v34c0 58 14.333 101.333 43 130c28 28 69 42 123 42c40.667 0 76.667 -5 108 -15v-126c-24 8.66699 -47 13 -69 13c-36.667 0 -55 -19.333 -55 -58v-21h123v-124h-121v-406h-152zM94 0v406h-63v125h63v34c0 58 14.333 101.333 43 130
c28 28 69 42 123 42c40.667 0 76.667 -5 108 -15v-126c-24 8.66699 -47 13 -69 13c-36.667 0 -55 -19.333 -55 -58v-21h123v-124h-121v-406h-152z" />
    <glyph glyph-name=".null" horiz-adv-x="0" 
 />
    <glyph glyph-name="nonmarkingreturn" horiz-adv-x="333" 
 />
    <glyph glyph-name="uni00A0" horiz-adv-x="300" 
 />
    <glyph glyph-name="apple" 
d="M0 0v700h500v-700h-500zM81 49h339l-170 255zM49 96l171 254l-171 254v-508zM450 96v508l-171 -254zM250 395l170 255h-339z" />
    </font>
</defs>
</svg>
